<?xml version="1.0" encoding="UTF-8" standalone="no"?>
<!-- Created with Inkscape (http://www.inkscape.org/) -->

<svg
   xmlns:dc="http://purl.org/dc/elements/1.1/"
   xmlns:cc="http://creativecommons.org/ns#"
   xmlns:rdf="http://www.w3.org/1999/02/22-rdf-syntax-ns#"
   xmlns:svg="http://www.w3.org/2000/svg"
   xmlns="http://www.w3.org/2000/svg"
   xmlns:sodipodi="http://sodipodi.sourceforge.net/DTD/sodipodi-0.dtd"
   xmlns:inkscape="http://www.inkscape.org/namespaces/inkscape"
   width="210mm"
   height="297mm"
   viewBox="0 0 210 297"
   version="1.1"
   id="svg8"
   inkscape:version="0.92.3 (2405546, 2018-03-11)"
   sodipodi:docname="mapa_comarcas_CV.svg">
  <defs
     id="defs2" />
  <sodipodi:namedview
     id="base"
     pagecolor="#ffffff"
     bordercolor="#666666"
     borderopacity="1.0"
     inkscape:pageopacity="0.0"
     inkscape:pageshadow="2"
     inkscape:zoom="5.6"
     inkscape:cx="167.72659"
     inkscape:cy="945.15707"
     inkscape:document-units="mm"
     inkscape:current-layer="layer1"
     showgrid="false"
     inkscape:window-width="1366"
     inkscape:window-height="716"
     inkscape:window-x="1280"
     inkscape:window-y="24"
     inkscape:window-maximized="1" />
  <metadata
     id="metadata5">
    <rdf:RDF>
      <cc:Work
         rdf:about="">
        <dc:format>image/svg+xml</dc:format>
        <dc:type
           rdf:resource="http://purl.org/dc/dcmitype/StillImage" />
        <dc:title></dc:title>
      </cc:Work>
    </rdf:RDF>
  </metadata>
  <g
     inkscape:label="Capa 1"
     inkscape:groupmode="layer"
     id="layer1">
    <path
       style="fill:#000000;stroke-width:0.26458338"
       d="m 32.212294,145.69395 c -0.26095,-0.28834 -0.844259,-0.56065 -1.296239,-0.60511 -0.62298,-0.0613 -0.85865,-0.23853 -0.97414,-0.73265 -0.0955,-0.40849 -0.39565,-0.70884 -0.80414,-0.80459 -0.42146,-0.0988 -0.68311,-0.37017 -0.74037,-0.7679 -0.0487,-0.33829 -0.302089,-0.67092 -0.563059,-0.73918 -0.4838,-0.1265 -1.06817,-1.11753 -1.06817,-1.81147 0,-0.21143 -0.11907,-0.38442 -0.26459,-0.38442 -0.14552,0 -0.26458,-0.17442 -0.26458,-0.38757 0,-0.21317 -0.23813,-0.515 -0.52917,-0.67077 -0.29104,-0.15576 -0.52916,-0.47891 -0.52916,-0.71812 0,-0.23921 -0.41672,-0.81663 -0.92605,-1.28315 -0.87791,-0.80414 -0.92604,-0.93838 -0.92604,-2.58285 0,-0.95406 0.12389,-1.81121 0.27531,-1.90479 0.15141,-0.0936 0.56924,-0.63579 0.9285,-1.2049 0.52572,-0.83279 0.66032,-1.40937 0.68963,-2.95431 0.02,-1.05577 -0.0403,-2.16126 -0.13409,-2.45665 -0.19136,-0.60267 -1.48088,-1.22366 -2.69662,-1.29859 -1.33805,-0.0825 -1.44398,-0.27335 -1.44398,-2.60172 v -2.15719 l 1.11029,-1.13129 1.11028,-1.1313 -0.0256,-3.37663 c -0.0141,-1.85714 -0.0672,-3.61023 -0.1181,-3.89574 -0.079,-0.44364 0.11588,-0.55003 1.34064,-0.73177 0.78822,-0.11696 1.59189,-0.34442 1.78594,-0.50547 0.62057,-0.51503 0.41239,-1.64542 -0.44093,-2.39419 -0.96532,-0.84706 -1.11249,-2.18668 -0.26458,-2.40841 0.55596,-0.14539 0.57727,-0.25225 0.58114,-2.91527 0.001,-0.9661 -0.1407,-1.702942 -0.38269,-1.984374 -0.21171,-0.246208 -0.60493,-0.831498 -0.87381,-1.300639 -0.44167,-0.77058 -0.53121,-0.814671 -0.92707,-0.456419 -0.44816,0.405579 -4.92697,1.260988 -5.32249,1.016539 -0.12036,-0.0744 -0.21883,-0.42587 -0.21883,-0.781089 0,-0.366782 -0.154811,-0.64584 -0.35829,-0.64584 -0.197061,0 -0.779385,-0.663512 -1.294057,-1.47447 -0.557588,-0.878581 -1.294949,-1.653821 -1.824523,-1.918232 -0.694167,-0.346599 -0.874708,-0.588579 -0.824593,-1.10522 0.149157,-1.537629 0.426976,-2.527009 0.765221,-2.725119 0.198683,-0.116379 0.361241,-0.517379 0.361241,-0.891119 0,-0.37774 0.352508,-1.081011 0.79375,-1.58356 0.550164,-0.626602 0.804586,-1.205691 0.829059,-1.887011 0.09697,-2.69942 0.15844,-3.409231 0.339865,-3.92429 0.188336,-0.534691 0.09994,-0.565711 -1.950757,-0.684421 -1.181419,-0.0684 -2.280084,-0.2564 -2.441478,-0.417791 -0.161393,-0.161387 -0.618202,-0.228488 -1.01513,-0.149098 -0.534835,0.106961 -0.820261,0.004 -1.102415,-0.399229 -0.266343,-0.380262 -0.7512101,-0.575411 -1.6138729,-0.649552 -1.230337,-0.105731 -2.15246,-0.582079 -1.904252,-0.98369 0.07207,-0.116599 -0.286434,-0.470011 -0.796663,-0.785349 -0.538915,-0.333071 -0.92769,-0.786061 -0.92769,-1.080931 0,-0.27917 -0.119063,-0.50759 -0.264584,-0.50759 -0.344494,0 -0.344494,-1.242298 0,-1.455209 0.145521,-0.0899 0.264584,-0.938231 0.264584,-1.88509 0,-1.804381 0.287393,-2.64623 1.100322,-3.223141 0.267948,-0.19015 0.485137,-0.487809 0.482642,-0.661461 -0.0073,-0.506738 1.165513,-2.789089 1.5066059,-2.931977 0.1712949,-0.0717 0.654059,-0.0011 1.0728089,0.156919 0.5110451,0.1929 1.1045591,0.20501 1.8052211,0.0368 0.946518,-0.227172 1.037758,-0.323292 0.978442,-1.030693 -0.0924,-1.101968 -0.190735,-1.498819 -0.522034,-2.106789 -0.420685,-0.771988 0.106675,-1.808859 1.879035,-3.694481 0.817597,-0.869849 1.507265,-1.76281 1.532593,-1.98438 0.204759,-1.791168 0.228617,-2.454238 0.137815,-3.830259 -0.03849,-0.583351 0.105064,-0.86078 0.566011,-1.09384 0.339673,-0.171731 0.750438,-0.445098 0.912813,-0.607471 0.162374,-0.16238 0.91923,-0.29523 1.6819,-0.29523 0.76268,0 1.44746,-0.0983 1.521739,-0.21853 0.187551,-0.303458 3.558951,-0.32707 3.744891,-0.02619 0.0832,0.13462 0.55676,0.24475 1.05238,0.24475 1.16852,0 1.53954,0.677249 1.47886,2.69944 -0.044,1.465009 0.25762,2.015908 0.60624,1.10744 0.11468,-0.29886 0.3953,-0.392461 0.93784,-0.31283 0.670469,0.0984 0.740949,0.0515 0.526109,-0.349901 -0.13644,-0.254939 -0.248069,-1.106249 -0.248069,-1.891799 0,-1.359289 0.0478,-1.459209 0.989739,-2.068751 0.67895,-0.43937 1.03256,-0.88946 1.12612,-1.433388 0.13248,-0.770253 0.18335,-0.79516 1.778921,-0.871443 1.40195,-0.067 1.72144,-0.178829 2.181169,-0.763288 0.296251,-0.376621 0.538642,-0.980289 0.538642,-1.341501 0,-0.418618 0.383709,-1.029121 1.058328,-1.683808 0.75176,-0.72957 1.05833,-1.247712 1.05833,-1.788732 0,-0.418899 0.178602,-0.90987 0.396881,-1.09102 0.218281,-0.18116 0.396869,-0.545168 0.396869,-0.808929 0,-0.26375 0.117941,-0.78974 0.262091,-1.168871 0.222099,-0.58419 0.3418,-0.64666 0.784749,-0.4096 0.39801,0.213 0.96733,0.13666 2.386912,-0.32009 l 1.864238,-0.5998 -0.165039,-1.121429 c -0.13852,-0.941291 -0.0859,-1.15072 0.32757,-1.303721 0.270939,-0.100259 0.977181,-0.69695 1.569429,-1.32597 0.592262,-0.62902 1.276872,-1.143679 1.52136,-1.143679 0.73738,0 0.504851,-0.740121 -0.61381,-1.953731 -0.582078,-0.63148 -1.058328,-1.33901 -1.058328,-1.57227 0,-0.49034 0.777968,-0.97191 1.570109,-0.97191 0.4264,0 0.546561,-0.16827 0.546561,-0.76545 0,-0.43631 -0.170651,-0.83092 -0.396881,-0.91773 -0.306199,-0.1175 -0.396869,-0.62747 -0.396869,-2.23214 v -2.079842 l -1.352701,-0.0308 c -0.74398,-0.0169 -1.42679,-0.10491 -1.517359,-0.19547 -0.0906,-0.0906 -0.182462,-0.69333 -0.204211,-1.33947 -0.0339,-1.00604 0.0749,-1.27107 0.75692,-1.84497 0.901279,-0.75838 1.276239,-0.7365 1.652479,0.0964 0.32866,0.72758 0.47357,0.72605 0.80056,-0.008 0.143651,-0.32267 0.55884,-0.65484 0.922642,-0.73815 0.572749,-0.13116 0.679199,-0.3293 0.79375,-1.47743 0.18736,-1.87789 1.411698,-3.35737 2.678179,-3.23631 0.701119,0.067 0.912371,0.2172 0.98036,0.69692 0.0477,0.33632 0.28579,0.68401 0.52917,0.77264 0.243369,0.0886 0.7738,0.43411 1.178729,0.76774 0.563041,0.46391 0.877382,0.55294 1.336302,0.37845 0.876938,-0.33341 1.96972,-0.0427 2.53346,0.67399 0.428148,0.54431 0.536088,0.57492 0.820189,0.2326 0.17993,-0.21681 0.543669,-0.3942 0.80831,-0.3942 0.264631,0 0.56215,-0.13106 0.661149,-0.29124 0.105191,-0.1702 0.51226,-0.22478 0.97953,-0.13133 0.472842,0.0946 0.959511,0.0272 1.19104,-0.165 0.215321,-0.1787 0.850051,-0.35562 1.410531,-0.39315 0.788591,-0.0528 1.082511,0.0504 1.299731,0.45624 0.157208,0.29376 0.553318,0.52448 0.900438,0.52448 1.053042,0 1.267,0.57765 0.856351,2.312 -0.236059,0.99698 0.702389,1.67943 2.967651,2.15807 1.462159,0.30895 3.05694,1.22173 2.815918,1.6117 -0.273949,0.44327 0.184341,1.00285 1.219962,1.48959 0.98938,0.46502 1.051179,0.55862 0.921798,1.39627 -0.0763,0.49381 -0.375698,1.15013 -0.665398,1.4585 -0.28969,0.30837 -0.774052,1.1198 -1.076341,1.80319 -0.302289,0.68338 -0.6653,1.314 -0.80668,1.40138 -0.14137,0.0874 -0.257051,0.68487 -0.257051,1.32777 0,0.96071 -0.12006,1.24758 -0.674068,1.61059 -0.37074,0.24292 -0.85018,0.81121 -1.065411,1.26287 -0.643901,1.35118 -0.984851,1.83111 -2.148401,3.02411 -0.610359,0.62581 -1.049999,1.29355 -0.976969,1.48387 0.148421,0.38676 -0.55885,1.20777 -1.041021,1.208442 -0.171508,2.38e-4 -0.75832,0.474959 -1.304018,1.054928 -0.80991,0.860761 -0.99219,1.251522 -0.99219,2.126951 0,1.277851 -0.82192,2.529441 -1.984372,3.02169 -0.595368,0.252122 -1.036079,0.82486 -1.7633,2.29158 -0.533249,1.0755 -1.05378,2.408711 -1.156748,2.962691 -0.116951,0.62924 -0.42332,1.161939 -0.81639,1.419489 -0.346051,0.226751 -0.62919,0.53748 -0.62919,0.69052 0,0.259401 -0.6179,0.991921 -2.050521,2.4309 -0.327419,0.328882 -0.595309,0.71855 -0.595309,0.865952 0,0.147388 -0.178602,0.416208 -0.396881,0.597368 -0.218281,0.18116 -0.396869,0.53834 -0.396869,0.79375 0,0.2554 -0.185481,0.618299 -0.412171,0.806431 -0.577329,0.47915 -1.130549,1.90381 -1.333569,3.434239 -0.132202,0.996551 -0.409781,1.5635 -1.190731,2.432011 -1.06871,1.18855 -1.35772,1.75351 -1.81556,3.549099 -0.153371,0.601512 -0.456591,1.241171 -0.67383,1.421461 -0.267571,0.222059 -0.394981,0.825201 -0.394981,1.86976 0,1.143799 -0.110238,1.60365 -0.426939,1.780889 -0.342011,0.191392 -0.368329,0.348462 -0.1323,0.789501 0.16206,0.30281 0.294661,0.737579 0.294661,0.966139 0,0.228561 0.297659,1.032571 0.661459,1.7867 0.363799,0.754121 0.661461,1.659141 0.661461,2.011151 0,0.352009 0.357179,1.091001 0.79375,1.6422 0.436559,0.551209 0.79375,1.247349 0.79375,1.546979 0,0.836321 0.554558,1.865011 1.098478,2.037641 0.703191,0.223181 0.625332,1.121521 -0.106299,1.226481 -0.737201,0.105759 -0.708501,0.980178 0.068,2.070619 0.290039,0.407331 0.527349,1.029221 0.527349,1.38199 0,0.678619 1.21272,2.692201 2.111099,3.505221 0.294101,0.26615 0.535171,0.733359 0.535721,1.03823 0.0021,0.859049 0.957479,2.22331 1.625431,2.31969 0.3864,0.0557 0.655798,0.32277 0.754829,0.748149 0.100381,0.43121 0.368091,0.69229 0.769081,0.750019 0.338309,0.0487 0.672578,0.308372 0.742828,0.577012 0.172021,0.657799 0.64407,0.819859 3.04869,1.046649 1.71753,0.161991 2.1599,0.305911 2.748061,0.894067 0.385551,0.38555 0.904441,0.701 1.15308,0.701 0.636289,0 1.26758,0.8114 1.20277,1.54593 -0.0322,0.36539 0.117991,0.68063 0.365921,0.76782 0.63386,0.22293 1.34665,0.90032 1.34665,1.27976 0,0.30317 -0.448691,0.60114 -2.310482,1.53437 -0.324879,0.16284 -0.70258,0.6147 -0.839319,1.00412 -0.177049,0.50424 -0.463979,0.73272 -0.996799,0.79375 -0.574882,0.0659 -0.81161,0.28192 -1.02199,0.93278 -0.36108,1.11707 -0.55739,1.28082 -1.047682,0.87391 -0.335888,-0.27876 -0.493098,-0.262 -0.887129,0.0946 -0.26339,0.23836 -0.778481,0.43339 -1.144651,0.43339 -0.946978,0 -1.541529,0.78111 -1.541529,2.02524 0,0.76944 -0.162171,1.19621 -0.59531,1.56666 -0.962361,0.82306 -1.743299,1.18906 -1.921581,0.9006 -0.283498,-0.45872 -1.006898,-0.27749 -1.755629,0.43983 -0.483511,0.46324 -1.183749,0.77079 -2.07608,0.91185 -0.740569,0.11707 -1.69296,0.48713 -2.116431,0.82236 -0.423468,0.33522 -1.3158,1.02622 -1.982949,1.53554 -1.423361,1.08664 -1.987439,2.0744 -1.987439,3.48024 0,0.8036 -0.100182,1.01768 -0.47625,1.01768 -0.261932,0 -0.614082,-0.13783 -0.782532,-0.30629 -0.398629,-0.39862 -1.122468,0.16103 -1.122468,0.86785 0,0.27323 -0.11906,0.51166 -0.264581,0.52985 -0.526171,0.0658 -0.666911,0.11078 -0.99219,0.31732 -0.423331,0.2688 -0.437009,2.89 -0.02109,4.04024 0.2589,0.71597 0.236209,0.96843 -0.13839,1.54014 -0.383099,0.58469 -0.64012,0.68381 -1.773169,0.68381 -1.029261,0 -1.358162,0.10338 -1.4731,0.46302 -0.0814,0.25466 -0.2463,0.70114 -0.366471,0.99218 -0.423921,1.0267 -0.792089,3.02883 -0.812189,4.41665 -0.0278,1.92199 -0.526902,3.46522 -1.22001,3.77253 -0.402952,0.17867 -0.616931,0.58048 -0.737581,1.38499 -0.10913,0.72777 -0.375029,1.27696 -0.74308,1.53474 -0.315979,0.22133 -0.694791,0.90468 -0.844291,1.52308 -0.30761,1.2724 -0.862068,1.53834 -1.571918,0.75397 z m 1.149861,-1.36884 c 0.01198,-0.43916 0.246589,-0.80491 0.657389,-1.02476 0.46455,-0.24863 0.69927,-0.6758 0.86052,-1.56608 0.16056,-0.88649 0.384382,-1.29563 0.81135,-1.48318 0.756481,-0.33228 0.835192,-0.56515 1.0131,-2.99724 0.0813,-1.11083 0.265671,-2.16177 0.4098,-2.33543 0.337061,-0.40614 -1.11964,-1.94896 -1.840158,-1.94896 -0.27813,0 -0.65391,-0.17859 -0.83507,-0.39688 -0.18115,-0.21827 -0.53834,-0.39687 -0.79375,-0.39687 -0.2554,0 -0.615582,-0.1822 -0.800381,-0.40487 -0.29787,-0.35891 -0.394321,-0.34229 -0.849691,0.1465 -0.619519,0.66498 -1.096529,0.56461 -1.216609,-0.256 -0.0487,-0.33289 -0.3166,-0.66487 -0.59532,-0.73775 -0.31778,-0.0831 -0.50675,-0.36419 -0.50675,-0.7538 0,-0.35534 -0.23193,-0.74542 -0.54183,-0.91127 -0.29801,-0.15949 -0.65732,-0.59373 -0.79846,-0.96498 -0.196949,-0.51801 -0.388559,-0.6405 -0.823859,-0.52667 -0.31198,0.0816 -0.80125,0.0231 -1.08727,-0.12998 -0.69055,-0.36957 -0.97258,0.089 -0.97786,1.59004 -0.003,0.83799 -0.22053,1.473 -0.7978,2.32835 -0.63731,0.94432 -0.79375,1.45605 -0.79375,2.59642 0,1.77655 0.17439,2.23615 0.96213,2.53564 0.34395,0.13077 0.63021,0.44908 0.63612,0.70734 0.006,0.25827 0.3631,0.88179 0.79375,1.38562 0.43065,0.50383 0.783,1.12494 0.783,1.38023 0,0.25531 0.41672,0.88092 0.92604,1.39024 0.509319,0.50933 0.926039,1.02084 0.926039,1.13672 0,0.11585 0.26789,0.32818 0.59532,0.47184 0.32742,0.14363 0.71284,0.52907 0.85649,0.85649 0.14364,0.32742 0.46443,0.59531 0.71285,0.59531 0.24841,0 0.785731,0.28829 1.19403,0.64064 0.658929,0.56864 0.762569,0.59094 0.92219,0.19843 0.0989,-0.2432 0.188219,-0.7495 0.19844,-1.12509 z m 4.633489,-12.78467 c 0.0557,-0.99894 0.391242,-1.21681 1.87371,-1.21681 1.159492,0 1.4839,-0.10018 1.713482,-0.52917 0.19662,-0.36737 0.199459,-0.68564 0.009,-1.04095 -0.150641,-0.28146 -0.273889,-0.97202 -0.273889,-1.53457 0,-1.13739 -0.363432,-1.65244 -1.177401,-1.66856 -0.298321,-0.006 -0.95462,-0.36311 -1.458439,-0.79375 -0.914321,-0.78153 -1.94953,-1.01909 -2.25896,-0.51842 -0.0899,0.14551 -0.46047,0.26458 -0.823402,0.26458 -0.362939,0 -1.09792,0.29766 -1.63331,0.66146 -0.69782,0.47418 -1.326298,0.66146 -2.219788,0.66146 -1.627011,0 -3.164921,0.85643 -3.010901,1.67672 0.0591,0.31473 0.1163,0.66448 0.12711,0.77723 0.0108,0.11273 0.32531,0.32118 0.69889,0.46322 0.50307,0.19127 0.63806,0.38791 0.52053,0.75821 -0.19732,0.62171 1.32893,2.30319 1.555249,1.71341 0.184881,-0.48178 1.06671,-0.4608 1.478331,0.0352 0.181149,0.21829 0.478811,0.39688 0.66145,0.39688 0.18265,0 0.48872,0.18873 0.680159,0.41941 0.217982,0.26265 0.625811,0.37864 1.091142,0.31034 0.489968,-0.0719 0.892109,0.0556 1.180668,0.37449 0.42241,0.46677 0.45143,0.46379 0.836332,-0.0857 0.2193,-0.3131 0.412679,-0.81918 0.429718,-1.12462 z m -10.140678,-4.60593 c 1.513079,-1.14787 2.677579,-1.63797 3.891998,-1.63797 0.89349,0 1.52197,-0.18728 2.21979,-0.66146 0.53539,-0.3638 1.277401,-0.66145 1.648921,-0.66145 0.636579,0 0.675499,-0.0783 0.675499,-1.35872 0,-1.11092 -0.121129,-1.471 -0.664159,-1.97425 -0.365281,-0.33854 -0.78835,-0.94219 -0.94015,-1.34144 -0.251269,-0.6609 -0.187711,-0.80005 0.709481,-1.55329 1.012798,-0.85029 1.12024,-1.7098 0.213719,-1.7098 -0.23822,0 -0.78687,-0.29767 -1.219231,-0.66147 -1.002059,-0.84317 -1.27263,-0.831 -2.08411,0.0938 -0.549899,0.62669 -0.66126,1.02075 -0.65423,2.31511 0.008,1.54811 0.003,1.55948 -0.736189,1.50772 -0.43917,-0.0307 -0.96263,-0.32925 -1.27598,-0.72759 -0.34267,-0.43565 -0.7932,-0.67546 -1.26893,-0.67546 -1.832459,0 -3.264579,-0.34993 -3.389669,-0.82826 -0.10549,-0.40339 -0.21839,-0.43311 -0.69216,-0.18223 -0.31135,0.1649 -0.77225,0.549 -1.02422,0.85358 -0.57514,0.69526 -0.86469,0.99376 -1.38129,1.42411 -0.31052,0.25867 -0.40955,0.88242 -0.40955,2.57969 v 2.23852 h 1.04272 c 0.57349,0 1.10815,0.10588 1.18812,0.23527 0.08,0.1294 0.4599,0.31422 0.84428,0.41069 0.77844,0.19537 1.66506,1.11895 1.67858,1.74852 0.009,0.41779 0.50104,1.04511 0.81978,1.04511 0.0968,0 0.45994,-0.21542 0.80698,-0.47869 z m -2.02613,-0.29677 c 0.0837,-0.13546 0.0312,-0.32109 -0.11668,-0.41249 -0.1479,-0.0914 -0.2689,0.0194 -0.2689,0.2463 0,0.46474 0.15876,0.53317 0.38558,0.16619 z m 15.489419,-2.00266 c 0,-0.52428 0.13348,-0.66145 0.643631,-0.66145 0.411369,0 0.704268,-0.19107 0.81167,-0.52945 0.209648,-0.66058 1.08322,-1.14784 1.74675,-0.97432 0.388318,0.10155 0.502118,-0.0102 0.502118,-0.49293 0,-0.34333 0.14432,-0.95727 0.320731,-1.3643 0.33473,-0.77235 2.713159,-3.25359 3.118789,-3.25359 0.597231,0 0.465701,-0.57596 -0.313708,-1.37369 -0.90954,-0.93092 -1.892941,-1.53672 -2.4946,-1.53672 -0.20165,0 -0.366631,-0.2311 -0.366631,-0.51355 0,-0.28246 -0.11906,-0.58714 -0.264581,-0.67708 -0.450209,-0.27824 -0.291978,-0.66145 0.273111,-0.66145 0.693669,0 1.19598,-1.15145 0.554191,-1.27041 -0.23673,-0.0439 -0.694261,-0.21066 -1.016722,-0.37061 -0.438618,-0.21758 -0.68561,-0.2084 -0.980599,0.0364 -0.490159,0.4068 -0.94665,0.15235 -0.94665,-0.52768 0,-0.28245 -0.11906,-0.51355 -0.264581,-0.51355 -0.145518,0 -0.264588,0.15673 -0.264588,0.34829 0,0.19156 -0.604422,0.87617 -1.343171,1.52136 -1.19816,1.04642 -1.325541,1.25876 -1.17984,1.96681 0.196151,0.95321 0.19436,1.2531 -0.01611,2.71198 -0.157391,1.09075 -0.191569,1.12448 -1.139881,1.12448 -0.537689,0 -1.128779,-0.14884 -1.313529,-0.33073 -0.269539,-0.26538 -0.460449,-0.18697 -0.966269,0.39688 -0.346702,0.40018 -0.755132,0.7276 -0.907632,0.7276 -0.660228,0 -0.245949,1.31987 0.622101,1.98198 0.816899,0.62308 0.886579,0.78145 0.75977,1.72688 -0.12359,0.92141 -0.0657,1.069 0.5046,1.28581 0.354309,0.13471 0.99468,0.53984 1.42304,0.90028 0.72,0.60584 1.334659,0.8762 2.167901,0.95351 0.184568,0.0171 0.330729,-0.26162 0.330729,-0.63075 z m -10.11481,-6.81301 c -0.0627,-0.61848 -0.20607,-1.33185 -0.31868,-1.58527 -0.1459,-0.32836 -0.0638,-0.51101 0.28573,-0.63554 0.603729,-0.21509 1.41651,-0.89471 1.41651,-1.18443 0,-0.11791 -0.34894,-0.61179 -0.77542,-1.09752 -0.791,-0.90091 -0.77841,-1.28877 0.0518,-1.59518 0.256839,-0.0948 0.589369,-0.4433 0.73896,-0.77445 0.14959,-0.33115 0.432228,-0.88115 0.62811,-1.22221 0.311639,-0.54265 0.277659,-0.82035 -0.272032,-2.223 -0.73838,-1.88411 -0.865399,-2.04876 -1.166058,-1.5115 -0.160681,0.28711 -0.531621,0.3743 -1.286321,0.30233 -0.8962,-0.0855 -1.10265,-0.22198 -1.33239,-0.881 -0.26871,-0.77082 -0.29243,-0.77895 -2.046179,-0.70141 -1.04332,0.0461 -1.81594,0.20446 -1.87532,0.3843 -0.0555,0.16822 0.26239,0.71972 0.70652,1.22556 0.85891,0.97824 1.07802,2.28033 0.46881,2.78593 -0.18629,0.15461 -0.93043,0.38318 -1.65365,0.50794 -1.09268,0.1885 -1.30226,0.31417 -1.23987,0.74349 0.0413,0.28415 0.0836,1.79657 0.0939,3.36092 0.0104,1.56434 0.0737,2.84426 0.14076,2.84426 0.067,0 0.37077,-0.13319 0.67497,-0.296 0.45964,-0.24599 0.62486,-0.20085 0.97794,0.26724 0.32216,0.42711 0.85982,0.61561 2.2245,0.7799 1.450389,0.17462 1.926819,0.35382 2.454959,0.92338 0.93839,1.01202 1.235859,0.8993 1.10242,-0.41774 z m 8.168929,-1.05449 c 0.111112,-0.17977 0.185571,-1.18722 0.165452,-2.23875 l -0.0366,-1.91186 1.585301,-1.62013 c 1.53107,-1.56471 2.34837,-1.88389 2.34837,-0.9171 0,0.30046 0.16926,0.36774 0.63259,0.25145 0.34793,-0.0873 0.712139,-0.0301 0.80936,0.12725 0.0972,0.15731 0.70553,0.28602 1.351791,0.28602 0.97436,0 1.175009,-0.0851 1.175009,-0.49831 0,-0.2931 -0.243271,-0.56192 -0.590751,-0.65279 -0.468199,-0.12243 -0.523089,-0.22215 -0.264578,-0.48065 0.179388,-0.17939 0.32616,-0.54048 0.32616,-0.80241 0,-0.41179 -0.24284,-0.47625 -1.794081,-0.47625 -1.72887,0 -1.804401,-0.0274 -2.0783,-0.75301 -0.2028,-0.53726 -0.522671,-0.80069 -1.11646,-0.91945 -1.02993,-0.20599 -1.86033,0.12404 -3.70891,1.47402 -1.14608,0.83696 -1.88558,0.49123 -1.88558,-0.88154 0,-0.40851 -0.190251,-0.50752 -0.97514,-0.50752 -0.627171,0 -1.186659,-0.19872 -1.56791,-0.55689 -1.011899,-0.95063 -1.160309,-0.35198 -0.3745,1.51061 0.74802,1.77302 0.77411,2.48828 0.110829,3.03876 -0.20256,0.1681 -0.368279,0.4489 -0.368279,0.624 0,0.1751 -0.28906,0.58991 -0.64235,0.92181 -0.35329,0.3319 -0.57804,0.77103 -0.499451,0.97584 0.211211,0.5504 3.189891,2.74627 3.725301,2.74627 0.253511,0 0.79805,0.35719 1.210099,0.79376 0.78926,0.83621 2.082771,1.08145 2.462601,0.46687 z m 10.458252,-0.47169 c 0.0494,-0.14817 0.715198,-0.34348 1.47959,-0.43401 1.35482,-0.16045 2.443458,-0.77447 2.443458,-1.37814 0,-0.36654 1.493171,-0.40181 1.71644,-0.0405 0.0989,0.15996 0.332711,0.16735 0.610931,0.0193 0.247909,-0.13191 0.659111,-0.30434 0.91377,-0.38315 0.3679,-0.11387 0.463021,-0.44397 0.463021,-1.60682 0,-0.80492 0.100848,-1.4635 0.224099,-1.4635 0.123259,0 0.491379,-0.23181 0.81805,-0.51513 0.63936,-0.55452 0.535961,-1.07237 -0.21412,-1.07237 -0.65595,0 -1.688251,-1.03265 -1.506299,-1.50681 0.618749,-1.61244 0.58257,-1.66819 -1.082392,-1.66819 -1.356609,0 -1.586778,0.0754 -1.816579,0.59531 -0.203441,0.46023 -0.442809,0.57639 -1.054931,0.5119 -0.43548,-0.0459 -1.055489,-0.25423 -1.377788,-0.46302 -1.591202,-1.03078 -2.934362,0.11342 -3.382741,2.88168 -0.22615,1.39618 -0.351081,1.64579 -0.859901,1.71805 -0.37547,0.0533 -0.59531,0.26762 -0.59531,0.58031 0,0.27267 -0.247369,0.66902 -0.549709,0.88079 -0.53685,0.37603 -0.52293,0.40361 0.59531,1.1792 0.629759,0.4368 1.494719,1.16325 1.922129,1.61435 0.82041,0.86587 1.10608,0.99145 1.252972,0.55077 z m 11.67716,-6.63439 c 0.4225,0.42249 0.682408,0.35406 0.660088,-0.17381 -0.0108,-0.25466 0.112752,-0.79044 0.274482,-1.19062 0.22267,-0.55098 0.474249,-0.72761 1.036349,-0.72761 0.5818,0 0.807071,-0.17161 1.0419,-0.79375 0.16478,-0.43656 0.4758,-0.79375 0.69115,-0.79375 0.21536,0 0.459311,-0.17658 0.542141,-0.39241 0.0828,-0.21583 0.314598,-0.32947 0.515078,-0.25254 0.440272,0.16894 1.092991,-0.54316 0.853321,-0.93096 -0.0939,-0.15189 -0.46132,-0.27617 -0.816531,-0.27617 -0.58906,0 -0.64584,-0.10469 -0.64584,-1.19063 0,-0.98121 -0.0859,-1.19062 -0.488518,-1.19062 -0.693812,0 -2.07804,-0.73469 -2.255491,-1.19713 -0.10889,-0.28375 -0.580959,-0.39037 -1.72838,-0.39037 -0.86822,0 -1.90599,-0.12448 -2.306151,-0.276624 -0.582869,-0.22161 -0.773089,-0.1953 -0.956418,0.132294 -0.272831,0.48753 -1.02955,0.53441 -1.472711,0.0912 -0.24007,-0.240073 -0.527701,-0.245754 -1.177401,-0.0233 -0.47285,0.16193 -1.514568,0.30829 -2.31493,0.32522 -2.862738,0.0606 -3.0363,0.10273 -3.12938,0.75949 -0.0477,0.33631 -0.244629,0.6721 -0.43769,0.74618 -0.291208,0.11176 -0.290679,0.25101 0.003,0.81737 0.449882,0.86714 0.860301,1.12313 1.808829,1.12818 0.665221,0.004 0.735373,0.0772 0.570582,0.59938 -0.622051,1.97096 -0.62385,1.96732 1.219938,2.47647 0.292952,0.0809 0.486471,-0.0964 0.600351,-0.55016 0.157749,-0.62853 0.271131,-0.66954 1.8504,-0.66954 2.04048,0 2.48235,0.3512 2.039649,1.62114 -0.34961,1.00288 -0.0218,1.55386 0.924423,1.55386 0.374348,0 0.797837,0.2669 1.061169,0.6688 0.41964,0.64044 0.46595,0.65062 1.092719,0.23995 0.473501,-0.31026 0.734491,-0.34887 0.943721,-0.13963 z m -13.839531,-1.1123 c 0,-0.76542 1.75019,-2.49314 2.645831,-2.61185 0.4978,-0.066 0.68218,-0.26771 0.74518,-0.81528 0.0854,-0.74223 0.0337,-0.77329 -1.404911,-0.84407 -0.354761,-0.0175 -0.571331,-0.26098 -0.661461,-0.74377 -0.0737,-0.39479 -0.342368,-0.95942 -0.59704,-1.25473 -0.609169,-0.7064 -0.586949,-0.79545 0.19844,-0.79545 0.883531,0 0.88033,-0.82261 -0.005,-1.23317 -0.93876,-0.435444 -2.060482,-0.0755 -2.24678,0.72091 -0.125622,0.53703 -0.334291,0.65801 -1.250932,0.72523 -0.749048,0.0549 -1.29454,0.28569 -1.709248,0.72304 -0.54846,0.57841 -0.827172,0.6428 -2.800202,0.64691 -1.786448,0.004 -2.22196,0.0849 -2.358099,0.43971 -0.24371,0.63511 0.59512,1.13819 1.620391,0.97181 0.70613,-0.11459 0.960199,-0.0152 1.404368,0.54949 0.298252,0.37917 0.729941,0.6894 0.9593,0.6894 0.229362,0 0.68848,0.36887 1.020252,0.8197 0.556818,0.75664 0.699709,0.81055 1.856999,0.70059 1.550771,-0.14734 2.42592,0.35509 2.247181,1.29012 -0.0661,0.34604 -0.0177,0.62917 0.107629,0.62917 0.125342,0 0.227891,-0.27349 0.227891,-0.60776 z m -9.657289,-1.5089 c 0.26339,-0.29105 0.624448,-0.52917 0.80236,-0.52917 0.177908,0 0.465759,-0.17145 0.639669,-0.38099 0.173901,-0.20955 0.550379,-0.41791 0.836621,-0.46302 1.099648,-0.17333 0.569838,-0.61271 -0.778412,-0.64554 -1.67549,-0.0408 -1.96364,-0.26715 -1.850239,-1.45337 l 0.0854,-0.89354 2.230372,-0.0776 c 1.959408,-0.0682 2.30932,-0.15658 2.880349,-0.72761 0.46274,-0.46274 0.940321,-0.64999 1.6578,-0.64999 0.837779,0 1.06648,-0.12239 1.355521,-0.72544 0.22075,-0.4606 0.619239,-0.774534 1.091499,-0.859902 l 0.743799,-0.134451 0.065,-2.728671 c 0.0735,-3.08827 -0.0685,-3.325638 -1.89957,-3.173609 -0.77869,0.0647 -0.99808,0.201629 -1.06389,0.66425 -0.0878,0.61741 -0.326139,0.733031 -2.067679,1.003181 -0.67551,0.104788 -1.30578,0.41502 -1.6519,0.813078 -0.3078,0.354002 -0.839049,0.643652 -1.180549,0.643652 -0.393041,0 -1.068782,0.4612 -1.84136,1.256768 -0.671251,0.691221 -1.5089,1.554422 -1.861442,1.918232 -1.240398,1.280022 -1.976188,1.852082 -2.3822,1.852082 -0.225559,0 -0.479038,0.11152 -0.563279,0.24783 -0.239961,0.38827 -1.752539,1.07509 -2.36766,1.07509 -0.36288,0 -0.67768,0.27439 -0.90564,0.78937 -0.43548,0.98383 -0.31626,1.69003 0.30553,1.80978 0.52413,0.10093 2.173729,-0.59984 2.44493,-1.03863 0.10619,-0.17183 0.416179,-0.0475 0.81448,0.3267 0.404921,0.38041 1.104879,0.6572 1.89031,0.7475 1.17901,0.13555 1.25182,0.19047 1.33019,1.0033 0.0947,0.98257 0.54211,1.10189 1.24001,0.33073 z m -8.280191,-3.63803 c 0.21673,-0.4536 0.59581,-0.75829 1.00662,-0.8091 0.70166,-0.0868 1.8053,-0.58176 2.94168,-1.31935 0.38236,-0.24818 1.047531,-0.67378 1.478169,-0.94579 0.430641,-0.27201 0.99975,-0.897094 1.264701,-1.389063 0.264951,-0.49198 0.60335,-0.894511 0.752001,-0.894511 0.148648,0 0.651978,-0.416719 1.1185,-0.926039 0.52551,-0.57372 1.093919,-0.926039 1.49402,-0.926039 0.35519,0 0.923988,-0.296122 1.263988,-0.65804 0.421111,-0.448252 1.026282,-0.712171 1.898211,-0.827831 0.951929,-0.126281 1.280009,-0.283141 1.280009,-0.611971 0,-0.243189 0.140891,-0.583049 0.31309,-0.75525 0.48184,-0.481849 0.0333,-0.708729 -0.721299,-0.36489 -1.02938,0.469022 -1.65557,0.372412 -2.286029,-0.352679 -0.53543,-0.615799 -0.606222,-0.63115 -1.051621,-0.228071 -0.382429,0.346102 -0.555281,0.367671 -0.867799,0.108299 -0.48963,-0.406357 -0.942592,-0.145658 -0.942592,0.542502 0,0.444069 -0.152939,0.51304 -0.99219,0.4474 -0.944758,-0.0739 -0.996148,-0.0365 -1.0751,0.782299 -0.0586,0.608211 -0.2174,0.859901 -0.54239,0.859901 -0.59444,0 -1.094489,0.507709 -1.094489,1.11125 0,0.26193 -0.16995,0.47625 -0.377671,0.47625 -0.20772,0 -0.63377,0.32558 -0.946788,0.723511 -0.51784,0.658318 -0.751972,0.731229 -2.598891,0.80926 -2.990419,0.126328 -4.789089,1.163989 -4.802019,2.770302 -0.003,0.40215 0.14295,0.97133 0.32485,1.26484 0.26964,0.43507 0.26251,0.5761 -0.0386,0.76346 -0.20324,0.12648 -0.2962,0.42026 -0.20674,0.65338 0.12166,0.31704 0.52703,0.42358 1.61162,0.42358 1.320139,0 1.480009,-0.0647 1.796719,-0.72761 z m 22.04126,-3.505723 c 0.19599,0 0.531609,-0.175281 0.745839,-0.389501 0.34294,-0.34295 0.428141,-0.34295 0.712751,0 0.439481,0.529544 1.01973,0.487982 2.062411,-0.14773 l 0.877919,-0.535239 0.50577,0.602379 c 0.423341,0.504201 0.546989,0.53966 0.758629,0.217581 0.32104,-0.488601 0.0254,-1.020861 -0.79266,-1.4272 -0.352039,-0.17485 -0.678108,-0.582829 -0.724609,-0.9066 -0.0543,-0.377801 -0.26893,-0.58869 -0.599199,-0.58869 -0.29972,0 -0.72748,-0.35913 -1.02425,-0.859901 -0.28027,-0.47294 -0.634431,-1.002329 -0.787011,-1.176409 -0.15258,-0.17408 -0.206441,-0.501499 -0.119671,-0.727599 0.102312,-0.266642 0.008,-0.411091 -0.26743,-0.411091 -0.23386,0 -0.425188,-0.178599 -0.425188,-0.39688 0,-0.218279 -0.23812,-0.635 -0.529162,-0.926039 -0.291039,-0.291042 -0.529169,-0.648232 -0.529169,-0.79375 0,-0.145521 -0.111519,-0.264581 -0.247819,-0.264581 -0.1363,0 -0.285131,-0.36907 -0.330732,-0.820161 -0.0699,-0.691229 -0.249259,-0.87794 -1.141238,-1.187788 -1.164611,-0.404562 -1.719792,-0.324041 -1.719792,0.24942 0,0.471598 -1.314169,1.364789 -1.877729,1.27622 -0.613,-0.0963 -1.08403,0.600639 -0.98566,1.458489 0.0718,0.626171 0.231629,0.7645 1.011999,0.875901 1.841762,0.262908 2.02723,0.59736 2.0042,3.614028 -0.0113,1.478402 0.0675,2.77685 0.175001,2.885451 0.2593,0.261871 2.09155,0.608973 2.5381,0.480811 0.1938,-0.0556 0.512721,-0.101121 0.7087,-0.101121 z M 27.497446,98.573628 c 0.779049,-0.376402 1.636719,-0.529172 2.970779,-0.529172 h 1.875541 l 1.967108,-1.979909 c 1.203571,-1.211411 1.911321,-2.125321 1.823371,-2.35449 -0.079,-0.206021 -0.01611,-0.45344 0.139861,-0.549841 0.401788,-0.24832 0.0764,-1.41931 -0.725932,-2.611999 -0.762429,-1.133451 -0.566528,-1.947809 0.44141,-1.834909 0.48877,0.0547 0.52044,-0.01511 0.28626,-0.631021 -0.30734,-0.808371 0.264891,-1.920499 1.100612,-2.13904 0.577389,-0.151 0.58733,-0.181961 0.25695,-0.800819 -0.134901,-0.252683 -0.309761,-0.66779 -0.38857,-0.922451 -0.0976,-0.31532 -0.414822,-0.463021 -0.994452,-0.463021 -0.490048,0 -1.092708,-0.226928 -1.42053,-0.534908 l -0.569388,-0.534901 -0.680022,0.534901 c -0.89141,0.70118 -1.94583,0.704029 -2.128438,0.006 -0.18134,-0.693479 -0.742341,-0.670129 -1.588811,0.0661 -0.37643,0.32742 -0.93819,0.773909 -1.24835,0.992191 -0.46196,0.325109 -0.519069,0.516469 -0.31588,1.05833 0.33407,0.890871 0.0116,1.67512 -0.763549,1.856791 -0.56978,0.133537 -0.64539,0.310948 -0.71697,1.682109 -0.044,0.843061 0.0403,1.67781 0.18737,1.85501 0.14706,0.177189 0.19672,0.59236 0.11036,0.922599 -0.10429,0.398801 0.0467,0.876012 0.44975,1.42112 0.577779,0.781492 0.585829,0.853252 0.16846,1.502471 -0.24106,0.37498 -0.57969,0.998749 -0.7525,1.38616 -0.19707,0.441809 -0.59172,0.75988 -1.0587,0.853281 -0.86918,0.173828 -1.01281,1.014619 -0.30663,1.794938 0.54284,0.599832 0.54574,0.599761 1.88089,-0.0453 z m -6.81669,-0.731952 c 0.21828,-0.0879 0.81359,-0.187341 1.32292,-0.220908 0.50932,-0.0336 1.01533,-0.071 1.12448,-0.0833 0.10914,-0.0122 0.19843,-0.19378 0.19843,-0.403468 0,-0.532842 0.48727,-0.77665 0.88781,-0.444222 0.57446,0.47675 2.14886,-0.48844 2.83939,-1.740699 0.59652,-1.081792 0.59983,-1.125091 0.12571,-1.648989 -0.48439,-0.535242 -0.65784,-1.474841 -0.78483,-4.2515 -0.0672,-1.469461 0.33318,-2.38125 1.04566,-2.38125 0.47321,0 0.6904,-0.750742 0.38323,-1.324692 -0.42442,-0.793038 -0.3229,-1.01251 0.794699,-1.718019 1.48497,-0.937421 1.40225,-1.455211 -0.23248,-1.455211 -1.184789,0 -1.317829,-0.0652 -1.619599,-0.79375 -0.20832,-0.502909 -0.52019,-0.79375 -0.85118,-0.79375 -0.28731,0 -0.85352,-0.195609 -1.25825,-0.434679 -0.68255,-0.403201 -0.78083,-0.403201 -1.35647,0 -0.34133,0.23907 -1.12989,0.434679 -1.75235,0.434679 -1.02919,0 -1.13175,0.0596 -1.13175,0.65791 0,0.506032 -0.22124,0.75034 -0.95836,1.058331 -0.52709,0.220239 -1.23444,0.400431 -1.57188,0.400431 -0.775975,0 -1.011788,0.372539 -0.656284,1.036809 0.184274,0.344311 0.188384,0.57367 0.01223,0.682541 -0.145913,0.0902 -0.265297,0.624027 -0.265297,1.186328 0,0.78318 -0.185697,1.208061 -0.79375,1.816111 -0.581898,0.5819 -0.79375,1.042839 -0.79375,1.726998 0,0.525373 -0.162664,1.025721 -0.372183,1.144831 -0.2047,0.116372 -0.455527,0.771681 -0.557391,1.45623 -0.172074,1.156391 -0.14099,1.256429 0.438329,1.41084 0.512504,0.136602 1.588357,1.367261 2.559066,2.9273 0.0996,0.160121 0.44903,0.4322 0.77645,0.604631 0.3569,0.187939 0.59532,0.55998 0.59532,0.92896 0,0.523391 0.10883,0.597951 0.7276,0.498401 0.40018,-0.0644 0.9062,-0.18901 1.12448,-0.276931 z m 17.895828,-5.55191 c 0.453351,-0.563359 0.657731,-0.656839 0.905492,-0.414129 0.246848,0.241819 0.452458,0.226669 0.899549,-0.0663 0.528021,-0.345972 0.634841,-0.320911 1.201089,0.28185 0.700781,0.745948 1.042831,0.797158 2.29644,0.34385 0.55185,-0.199552 0.878682,-0.494792 0.878682,-0.79375 0,-0.675392 0.944628,-1.534351 1.687398,-1.534351 0.34598,0 0.77066,-0.170619 0.943732,-0.37915 0.253519,-0.30548 0.19172,-0.446871 -0.31805,-0.72761 -0.347991,-0.19164 -1.070332,-0.839131 -1.60519,-1.438849 -0.81929,-0.918652 -0.972471,-1.280851 -0.972471,-2.299491 0,-0.664991 -0.10365,-1.273141 -0.23032,-1.351431 -0.12668,-0.0783 -0.389371,-0.859229 -0.58375,-1.73541 l -0.35342,-1.593059 -1.59907,-0.009 c -2.090121,-0.01151 -2.85115,-0.57563 -2.736641,-2.028579 0.0724,-0.919051 0.01791,-1.012401 -0.63572,-1.087821 -0.453279,-0.0523 -0.78051,-0.288999 -0.89404,-0.646689 -0.31433,-0.99037 -1.16599,-1.468951 -2.348439,-1.31967 -2.189289,0.276399 -2.777569,1.058061 -2.78652,3.7025 -0.0021,0.69357 0.102809,0.859901 0.54365,0.859901 0.62248,0 1.608341,0.467508 1.896779,0.899498 0.10691,0.160121 0.19621,0.594731 0.19844,0.965811 0.005,0.86641 0.458362,1.309691 1.338882,1.309691 0.787239,0 1.331248,0.528449 1.822079,1.769959 0.37786,0.95577 0.215149,1.405041 -0.508859,1.405041 -0.594842,0 -0.881751,0.756719 -0.644822,1.70072 0.21191,0.844309 -0.2516,1.46766 -0.95463,1.283809 -0.70495,-0.184349 -0.65287,0.25587 0.142021,1.200549 0.36381,0.432351 0.661461,1.03088 0.661461,1.330071 0,0.45397 0.582898,1.060781 1.048398,1.09138 0.0673,0.004 0.385831,-0.319371 0.70785,-0.71955 z m 9.740681,-3.812779 c 0.494181,-0.22516 0.84328,-0.22988 1.30897,-0.0177 0.832329,0.37924 1.052759,0.12039 0.550389,-0.646311 -0.222139,-0.33904 -0.327049,-0.616429 -0.233108,-0.616429 0.0939,0 0.0376,-0.16052 -0.125262,-0.356719 -0.225938,-0.272241 -0.16999,-0.470792 0.236291,-0.83847 l 0.532339,-0.481761 -0.560988,-0.597149 c -0.308552,-0.32843 -0.48705,-0.716801 -0.396671,-0.863042 0.0904,-0.14624 0.0433,-0.340669 -0.104571,-0.43207 -0.1479,-0.0914 -0.268899,-0.46056 -0.268899,-0.82034 0,-0.384181 -0.19109,-0.721778 -0.463021,-0.818028 -0.254659,-0.0901 -0.788918,-0.508802 -1.187238,-0.93036 -0.61087,-0.646512 -0.861991,-0.740632 -1.60447,-0.601343 -0.632691,0.118693 -0.977602,0.0478 -1.22641,-0.25196 -0.190381,-0.229409 -0.569701,-0.417099 -0.842921,-0.417099 -0.51181,0 -0.673851,0.388501 -0.26694,0.639982 0.126399,0.0781 0.30389,0.591169 0.394401,1.1401 0.0905,0.548918 0.344278,1.339077 0.56392,1.755899 0.219638,0.416809 0.399348,1.32438 0.399348,2.016819 0,1.15221 0.10046,1.351581 1.184712,2.351 1.34498,1.23976 1.216718,1.192051 2.110129,0.784981 z m -14.671929,-6.0365 c 0.772898,-0.645221 0.877879,-0.85189 0.634777,-1.249651 -0.164509,-0.269179 -0.682199,-0.514779 -1.189558,-0.564348 -1.39541,-0.136332 -1.50223,-0.339641 -1.237491,-2.355022 0.279331,-2.12638 0.90705,-2.925728 2.467951,-3.142769 0.574271,-0.0798 1.314411,-0.276161 1.644769,-0.436239 0.445411,-0.215832 0.68135,-0.210371 0.912821,0.02109 0.387361,0.387361 1.96582,0.41143 2.19937,0.0335 0.154739,-0.250381 -0.78423,-1.301552 -1.173641,-1.313871 -0.0869,-0.003 -0.515139,-0.59581 -0.951709,-1.317919 l -0.79375,-1.31292 -1.5875,-0.0449 c -0.87312,-0.02471 -1.914919,-0.01929 -2.315099,0.01191 -0.400182,0.0312 -0.727602,-0.0657 -0.727602,-0.215379 0,-0.598321 -1.028129,-0.849191 -1.814249,-0.442669 -0.58447,0.302239 -0.98183,0.332298 -1.715369,0.12976 -0.75134,-0.207452 -1.08867,-0.175821 -1.58367,0.148518 -0.56342,0.369171 -0.70892,0.370441 -1.39587,0.0122 -0.42179,-0.21997 -0.86943,-0.40067 -0.99477,-0.401569 -0.32412,-0.0021 0.0584,1.864349 0.53299,2.60073 0.33785,0.52424 0.34845,0.82523 0.0699,1.984369 -0.1806,0.75152 -0.3395,2.080771 -0.35312,2.953901 -0.0275,1.761289 0.33574,2.263659 1.81728,2.513539 0.56502,0.0953 0.82747,0.31727 0.93846,0.79375 0.13503,0.57966 0.31552,0.67173 1.459639,0.74453 0.71805,0.0457 1.45588,0.20783 1.63963,0.360331 0.18374,0.15249 0.51395,0.208229 0.73379,0.12387 0.24648,-0.0946 0.563741,0.0969 0.827549,0.49957 0.54555,0.832609 0.81865,0.81384 1.954472,-0.134361 z m -14.64991,-0.5841 c 0.62917,-0.227509 0.88739,-0.49867 0.94483,-0.99219 0.0712,-0.611491 0.21713,-0.693002 1.46578,-0.818531 1.93939,-0.194979 2.31246,-0.64911 2.33841,-2.846498 0.0115,-0.977122 0.1711,-2.227591 0.35457,-2.778832 0.27928,-0.839081 0.27047,-1.098568 -0.0541,-1.59391 -0.21321,-0.325409 -0.47181,-1.20346 -0.57465,-1.951228 -0.17602,-1.27975 -0.27092,-1.415302 -1.61648,-2.308702 -0.78621,-0.52202 -1.51801,-0.949118 -1.6262,-0.949118 -0.1082,0 -0.63321,-0.446493 -1.16671,-0.992191 -0.53349,-0.5457 -1.40368,-1.366411 -1.933761,-1.823802 -0.530078,-0.457387 -1.018923,-1.082468 -1.086324,-1.389067 -0.265673,-1.208511 -0.350367,-1.509922 -0.620296,-2.207483 -0.154087,-0.39819 -0.26441,-1.142867 -0.245164,-1.654818 0.01925,-0.511971 -0.03945,-1.005292 -0.130446,-1.096279 -0.237838,-0.237842 -2.551199,2.210498 -2.862647,3.029677 -0.160948,0.42332 -0.169626,0.898001 -0.02247,1.229022 0.83588,1.88025 0.871094,2.356328 0.222278,3.00515 -0.642364,0.642358 -2.100499,0.859079 -3.2106778,0.47719 -0.4257321,-0.14645 -0.6455312,0.02381 -1.1244791,0.87114 -0.327422,0.579239 -0.595313,1.20251 -0.595313,1.38503 0,0.182521 -0.377165,0.721001 -0.838144,1.19661 -0.788372,0.81339 -0.834373,0.96877 -0.774639,2.61647 0.04717,1.30124 -0.04519,1.871851 -0.359155,2.21877 -0.378072,0.417769 -0.380089,0.502369 -0.01911,0.801949 0.221953,0.184211 0.40355,0.50596 0.40355,0.71501 0,0.209061 0.119063,0.306512 0.264584,0.21658 0.145521,-0.0899 0.264583,0.0868 0.264583,0.392861 0,0.370949 0.144664,0.530469 0.434087,0.478629 0.277906,-0.0498 0.539691,0.207841 0.727604,0.71601 0.25811,0.697989 0.437146,0.80436 1.484142,0.88169 0.7895899,0.0583 1.3268869,0.261752 1.5951699,0.603972 0.259481,0.330988 0.68642,0.500017 1.190625,0.471397 0.432344,-0.0245 1.121253,0.0906 1.530909,0.255921 0.409656,0.165312 1.436874,0.300562 2.282708,0.300562 1.676146,0 2.296786,0.39901 2.055546,1.321498 -0.15989,0.61142 0.0945,0.653942 1.301379,0.217511 z m 28.032498,-4.080581 c -0.37542,-0.792909 -0.682588,-1.624809 -0.682588,-1.848678 0,-0.223872 -0.10259,-0.607571 -0.227981,-0.85267 -0.125389,-0.245092 -0.310139,-0.788541 -0.410559,-1.207672 -0.16201,-0.676209 -0.121441,-0.746049 0.36028,-0.62008 0.464148,0.12138 0.542848,0.01881 0.542848,-0.70733 0,-0.74749 -0.15857,-0.934929 -1.322919,-1.56378 -0.957101,-0.516908 -1.322919,-0.61341 -1.322919,-0.348959 0,0.201039 -0.16991,0.50654 -0.377582,0.678889 -0.250428,0.207841 -0.329769,0.607949 -0.235619,1.188141 0.0952,0.586499 -0.0113,1.108721 -0.32321,1.584701 -0.58126,0.887108 -0.269761,1.264838 1.04307,1.264838 1.026411,0 1.578951,0.55296 2.260499,2.26219 0.188582,0.47294 0.46138,0.85989 0.606221,0.85989 0.144841,0 0.194911,0.2617 0.11126,0.581552 -0.0836,0.319849 -0.008,0.756208 0.167579,0.969698 0.64379,0.781762 0.514491,-0.756248 -0.18838,-2.24073 z m -4.120888,1.74543 c 0.199818,-0.37338 0.45847,-0.488911 0.869198,-0.388268 0.399812,0.098 0.814832,-0.072 1.312331,-0.537491 0.85599,-0.80088 0.84459,-0.729739 0.30059,-1.876142 -0.37598,-0.7923 -0.548071,-0.899879 -1.4396,-0.899879 -0.556911,0 -1.076219,0.102999 -1.154031,0.22888 -0.0778,0.125892 -0.629848,0.294391 -1.226769,0.374452 -1.369129,0.183639 -2.102581,0.833948 -2.102581,1.864238 0,1.182132 0.666361,1.76576 2.01607,1.76576 0.87122,0 1.207442,-0.125431 1.424792,-0.53155 z m 3.444848,-0.14713 c 0.340291,-0.895008 0.336791,-0.90882 -0.230119,-0.90882 -0.602051,0 -1.479121,0.922491 -1.24194,1.306251 0.330419,0.53463 1.207751,0.29777 1.472059,-0.397431 z m -6.466559,-2.872369 c 0.295301,-0.206841 0.946869,-0.481611 1.44794,-0.610611 0.744529,-0.19168 0.927399,-0.376809 1.000591,-1.013 0.0493,-0.428148 0.211769,-0.926211 0.361129,-1.106789 0.402529,-0.486651 -0.004,-2.66886 -0.6639,-3.561 -0.409131,-0.553371 -0.75029,-0.743151 -1.234419,-0.68665 -0.629941,0.0735 -0.673452,0.178549 -0.744561,1.797849 -0.0529,1.205241 -0.203211,1.81627 -0.50228,2.04225 -0.352531,0.26638 -0.367551,0.393801 -0.0864,0.732571 0.47733,0.575148 -0.350779,1.458521 -1.367279,1.458521 -0.748612,0 -0.753002,0.009 -0.325432,0.661458 0.4855,0.740971 1.30607,0.85172 2.114611,0.285401 z m -0.15457,-5.25957 c 0,-0.943682 0.13775,-1.804631 0.3175,-1.984381 0.395251,-0.39525 1.333929,-0.412318 1.715061,-0.0312 0.42128,0.42128 1.40702,-0.276792 1.40702,-0.9964 0,-0.320551 0.251539,-0.759 0.55898,-0.974341 0.516009,-0.361419 0.538959,-0.507648 0.29863,-1.902569 -0.143182,-0.83109 -0.20819,-1.710491 -0.144452,-1.954231 0.18257,-0.698129 -0.99989,-1.1177 -2.05027,-0.72748 -0.750109,0.27867 -0.8841,0.25639 -1.145259,-0.190359 -0.800301,-1.369082 -1.08635,-1.478431 -3.867629,-1.478431 -1.641171,0 -2.645831,-0.103608 -2.645831,-0.272881 0,-0.150087 -0.208359,-0.346779 -0.463021,-0.437089 -0.254659,-0.0903 -0.666628,-0.33886 -0.915479,-0.55232 -0.4083,-0.350219 -0.569701,-0.27087 -1.65365,0.81308 -1.27757,1.27757 -1.50339,2.1423 -0.90336,3.459221 0.23389,0.513321 0.56448,0.690319 1.539941,0.824479 0.685369,0.0943 1.587418,0.446169 2.012479,0.7851 l 0.77035,0.614252 -0.59051,1.182378 c -0.324771,0.650301 -0.5905,1.556282 -0.5905,2.013291 v 0.830911 l 1.521349,0.004 c 1.58772,0.004 2.26636,0.238061 2.130642,0.734142 -0.0441,0.161049 0.158009,0.655809 0.449048,1.099468 0.409821,0.62471 0.723112,0.80682 1.38906,0.807411 l 0.859901,7.93e-4 z m 7.38913,-0.882351 c 0.301601,-0.383419 0.551489,-0.88944 0.55531,-1.12448 0.004,-0.235039 0.220181,-0.902221 0.480819,-1.482619 l 0.47388,-1.05529 -0.643358,-0.33377 c -0.353841,-0.183581 -1.22505,-0.333779 -1.93602,-0.333779 -1.197552,0 -1.29268,0.048 -1.29268,0.652147 0,0.381363 -0.219721,0.769742 -0.529162,0.935353 -0.291039,0.155757 -0.529169,0.4797 -0.529169,0.719859 0,0.24016 -0.25319,0.70616 -0.562639,1.035558 -0.318511,0.339043 -0.494321,0.776952 -0.40518,1.00924 0.202988,0.528992 0.703238,0.532662 0.703238,0.005 0,-0.56774 0.71818,-0.780658 1.222211,-0.36236 0.474049,0.39343 1.462739,0.96675 1.735151,1.006181 0.0986,0.01429 0.425998,-0.287771 0.727599,-0.6712 z m -19.114419,-0.6461 c 0.768099,0.21208 1.110979,0.176829 1.707499,-0.17554 0.71498,-0.422349 0.78083,-0.41547 1.5638,0.163401 1.08409,0.8015 1.472721,0.592389 1.638879,-0.88183 0.0759,-0.673121 0.34907,-1.457139 0.607121,-1.742281 0.447551,-0.49454 0.44776,-0.542081 0.004,-1.031899 -0.29451,-0.32544 -0.990542,-0.57918 -1.9006,-0.69289 -1.701381,-0.212569 -1.950051,-0.540161 -1.950051,-2.568962 0,-1.216149 0.10833,-1.530958 0.72761,-2.114589 0.40018,-0.37714 0.927171,-0.962369 1.17108,-1.300499 0.435631,-0.603911 0.458261,-0.606592 1.27821,-0.15177 1.194509,0.66258 1.32102,0.597119 1.32102,-0.683512 0,-1.443638 -0.20446,-1.648028 -0.948949,-0.948608 -0.695061,0.652968 -1.46603,0.58669 -1.80711,-0.155371 -0.443641,-0.965139 -1.848501,-1.926719 -3.086081,-2.112301 -1.130209,-0.169489 -1.215329,-0.138049 -1.536889,0.56769 -0.31854,0.699111 -0.36294,0.716301 -0.69112,0.267502 -0.21951,-0.300202 -0.32259,-1.041511 -0.27554,-1.981732 0.0926,-1.851218 -0.17721,-2.42815 -1.135699,-2.42815 -0.402341,0 -0.844641,-0.108768 -0.982881,-0.241707 -0.34333,-0.330153 -1.211539,-0.411412 -1.77608,-0.166233 -0.27416,0.119071 -0.630629,0.0662 -0.86486,-0.128148 -0.32322,-0.268251 -0.4889,-0.248851 -0.87736,0.1027 -0.31216,0.282499 -0.94982,0.433388 -1.8315,0.433388 -0.74394,0 -1.430741,0.126402 -1.526225,0.2809 -0.09549,0.154501 -0.467693,0.392721 -0.82713,0.529371 -0.531917,0.202239 -0.615712,0.359211 -0.450325,0.843581 0.111757,0.327308 0.187078,0.863 0.16738,1.190419 -0.193245,3.21201 -0.07913,5.492091 0.360217,7.197611 0.470768,1.827469 0.579664,1.992479 2.346603,3.555749 1.99756,1.767311 4.28536,3.348349 6.20575,4.28861 1.08284,0.53019 1.26376,0.55068 1.805541,0.20448 0.465369,-0.29737 0.820389,-0.32449 1.56322,-0.11938 z m 21.996618,-4.682299 c 0.918832,-1.160121 1.385422,-3.2936 0.800372,-3.659751 -0.195842,-0.122568 -0.88869,-0.28548 -1.539682,-0.362008 -0.88819,-0.104431 -1.25871,-0.290211 -1.48455,-0.744392 -1.003819,-2.018761 -2.76166,-2.556629 -3.42637,-1.048409 -0.48146,1.09243 -0.927108,1.64061 -1.51225,1.860169 -0.60501,0.22702 -0.599419,0.984102 0.007,0.984102 0.949831,0 1.57421,0.717388 1.57421,1.808699 0,0.569519 0.0828,1.169451 0.183992,1.333191 0.102557,0.165938 0.872738,0.297688 1.740249,0.297688 0.855951,0 1.62986,0.11906 1.719799,0.26458 0.33817,0.54718 1.1728,0.23095 1.936952,-0.733869 z m -8.15466,-3.52075 c 0,-0.293171 0.28007,-0.646832 0.643322,-0.812339 0.353819,-0.161211 0.925978,-0.843272 1.27146,-1.515682 0.5095,-0.991661 0.78885,-1.24755 1.479079,-1.35486 0.595029,-0.0925 0.968579,-0.360201 1.242089,-0.89014 0.521531,-1.010499 0.504661,-1.08985 -0.310578,-1.461299 -0.529572,-0.241289 -0.626931,-0.394502 -0.39687,-0.624552 0.661588,-0.661598 0.34975,-1.046858 -0.703342,-0.868939 -0.989319,0.167151 -1.03754,0.1357 -2.57969,-1.682499 -1.23965,-1.461571 -1.86695,-1.96755 -2.970498,-2.396032 -0.76944,-0.298759 -1.677662,-0.5432 -2.01825,-0.5432 -0.34059,0 -0.782611,-0.235789 -0.98226,-0.523968 -0.390372,-0.56348 -1.217322,-0.681011 -4.133321,-0.58743 -1.56469,0.0502 -1.65364,0.088 -1.65364,0.70217 0,0.40023 -0.26328,0.831368 -0.68667,1.124479 -1.57038,1.08717 -1.72574,1.35188 -1.6418,2.79741 0.0642,1.106041 0.19244,1.425311 0.66697,1.660771 0.3231,0.160319 0.83776,0.609698 1.14368,0.998609 0.30592,0.388919 0.72912,0.70712 0.94044,0.70712 0.211321,0 0.497389,0.297659 0.63571,0.661461 0.30325,0.797619 0.812649,0.851041 1.26151,0.132289 0.763889,-1.223179 1.648909,-0.218969 1.648909,1.870991 v 1.568601 h 2.513542 c 2.634628,0 2.585418,-0.01871 3.786169,1.442048 0.419169,0.50995 0.844039,0.30607 0.844039,-0.405009 z m 10.837162,-2.963571 c 0.006,-0.40476 0.189349,-0.80445 0.40763,-0.888209 0.218279,-0.0838 0.39814,-0.28838 0.399698,-0.454721 0.0021,-0.16633 0.507561,-0.855901 1.124482,-1.532379 1.862749,-2.042621 1.91344,-2.21275 0.846778,-2.842091 -0.503658,-0.297169 -0.91575,-0.66339 -0.91575,-0.813811 0,-0.150428 -0.281598,-0.27351 -0.625779,-0.27351 -0.732131,0 -2.096011,-0.98597 -1.869919,-1.351799 0.26379,-0.42682 -1.027641,-1.549169 -1.78817,-1.554051 -0.391592,-0.003 -0.785572,-0.123629 -0.875512,-0.26915 -0.0899,-0.145518 -0.415009,-0.264589 -0.722379,-0.264589 -0.307379,0 -0.77412,-0.194799 -1.037211,-0.43289 -0.407898,-0.369138 -0.500039,-0.376319 -0.62574,-0.0487 -0.0811,0.21128 0.02641,0.719108 0.238771,1.128509 0.367001,0.70739 0.349149,0.775531 -0.35932,1.371671 -0.41003,0.345009 -1.047721,0.627298 -1.41709,0.627298 -0.46631,0 -0.72703,0.181952 -0.85299,0.59531 -0.0998,0.327422 -0.35369,0.79185 -0.56423,1.032071 -0.512759,0.584991 -0.0467,0.886161 1.371439,0.886161 1.019331,0 1.056992,0.0308 1.021842,0.83679 -0.0269,0.616299 0.0951,0.871209 0.463018,0.96742 0.52768,0.13799 0.69069,1.08912 0.234932,1.37079 -0.504862,0.31202 -0.30421,1.94455 0.277249,2.25574 0.29801,0.15948 0.652251,0.58039 0.787201,0.935349 0.18859,0.496009 0.4459,0.649671 1.111819,0.663969 0.476541,0.01019 1.104569,0.113851 1.395611,0.230273 0.69088,0.276378 1.958208,-1.120521 1.97362,-2.175402 z m 4.918919,-7.400031 c 0.250769,-0.83675 0.558699,-1.521359 0.6843,-1.521359 0.1256,0 0.237069,-0.20836 0.24771,-0.463019 0.0304,-0.72863 0.88156,-2.02479 1.517971,-2.311701 0.318648,-0.14365 0.57935,-0.35201 0.57935,-0.463021 0,-0.111009 0.181149,-0.20184 0.40255,-0.20184 0.221398,0 0.538168,-0.297659 0.703929,-0.661458 0.165759,-0.3638 0.401331,-0.661461 0.523489,-0.661461 0.122171,0 0.22212,-0.542489 0.22212,-1.20554 0,-0.98216 0.139682,-1.33759 0.753851,-1.918229 0.414621,-0.39198 0.827601,-0.921052 0.917739,-1.17571 0.0901,-0.254661 0.405741,-0.463021 0.701352,-0.463021 0.295609,0 0.533729,-0.0893 0.529159,-0.19844 -0.01691,-0.40402 -1.443281,-1.22924 -2.0394,-1.17991 -0.339029,0.0281 -0.666859,-0.0968 -0.728509,-0.2775 -0.0617,-0.18069 -0.147291,-1.63821 -0.19031,-3.23894 -0.0774,-2.87853 -0.0855,-2.91139 -0.738661,-2.9995 -0.363241,-0.049 -0.908619,-0.39562 -1.21195,-0.77028 -0.730401,-0.90215 -1.168271,-0.58006 -1.168271,0.85936 0,0.63767 -0.11907,1.23298 -0.264588,1.32292 -0.145521,0.0899 -0.264581,0.65313 -0.264581,1.25155 0,1.80555 -1.37827,2.81693 -1.719789,1.26199 -0.140822,-0.64113 -0.310682,-0.79375 -0.88342,-0.79375 -0.92442,0 -1.379961,0.75422 -1.405721,2.32737 -0.01119,0.68448 -0.11953,1.3682 -0.24072,1.51938 -0.12119,0.15118 -0.0922,0.77969 0.0644,1.39668 0.238152,0.938231 0.21421,1.199729 -0.146248,1.598041 -0.23704,0.26193 -0.43099,0.61295 -0.43099,0.780039 0,0.16708 -0.299062,0.49974 -0.66457,0.73923 -0.365511,0.239491 -0.733401,0.709729 -0.817542,1.044959 -0.0841,0.33524 -0.376568,0.811871 -0.64984,1.059172 -0.407109,0.36843 -0.442518,0.55117 -0.19608,1.011658 0.316931,0.592191 0.31279,0.650161 -0.0803,1.123792 -0.325692,0.39243 -0.0342,1.10659 0.587359,1.439259 0.27392,0.1466 0.49803,0.47666 0.49803,0.73348 0,0.631201 0.51371,1.10194 1.202539,1.10194 0.31214,0 0.794351,0.254391 1.07156,0.565319 0.53748,0.602832 2.062512,1.365882 2.134831,1.068163 0.02379,-0.0981 0.24848,-0.862881 0.499239,-1.699623 z m -13.48512,0.245592 c 0.240041,-0.70435 0.43806,-0.85388 1.219409,-0.920801 1.21416,-0.103981 1.864011,-1.10428 1.196552,-1.841809 -0.27754,-0.306681 -0.345892,-0.602581 -0.195432,-0.846021 0.14595,-0.236159 0.0922,-0.573159 -0.145679,-0.912731 -0.207391,-0.296079 -0.377061,-0.791199 -0.377061,-1.10027 0,-0.619738 -0.68521,-2.132419 -1.075089,-2.373378 -0.468731,-0.28969 -0.279199,-1.663822 0.25277,-1.83266 0.685929,-0.21771 0.933529,-1.199701 0.302479,-1.199701 -0.258648,0 -0.75352,-0.41561 -1.099698,-0.92359 -0.503081,-0.7382 -0.788752,-0.91481 -1.42317,-0.87984 -0.43656,0.0241 -1.002842,0.22067 -1.25839,0.4369 -0.255561,0.21623 -0.538551,0.31925 -0.628862,0.22894 -0.0903,-0.0903 -0.483579,9.26e-4 -0.873918,0.20278 -0.4376,0.2263 -0.852472,0.27877 -1.082062,0.13688 -0.531839,-0.3287 -1.05156,0.19643 -1.05156,1.062519 0,0.40092 -0.178599,0.87717 -0.39688,1.058331 -0.218279,0.18116 -0.39687,0.558839 -0.39687,0.83929 0,0.726389 -0.693089,1.970619 -1.3566,2.43536 -0.39723,0.27823 -0.52065,0.56932 -0.41411,0.97672 0.0884,0.337941 -0.008,0.74059 -0.23182,0.963951 -0.487119,0.487119 -0.25739,0.870098 0.52193,0.870098 0.332661,0 0.82033,0.238122 1.08372,0.529161 0.26339,0.29105 0.69415,0.52917 0.95726,0.52917 1.14491,0 3.332311,1.155009 4.56661,2.411301 0.709801,0.72244 1.36465,1.240801 1.455211,1.151909 0.0906,-0.0889 0.29364,-0.54001 0.45126,-1.002509 z m 6.98046,-3.4759 c 0.189101,-0.22786 0.251759,-0.69845 0.152919,-1.148472 -0.1099,-0.500388 -0.042,-0.86655 0.197591,-1.065379 0.200771,-0.166629 0.522771,-0.78091 0.715571,-1.365081 0.192788,-0.584168 0.4983,-1.062119 0.678918,-1.062119 0.180612,0 0.569322,-0.40834 0.86379,-0.907429 0.572151,-0.969721 0.519052,-1.808091 -0.164579,-2.598301 -0.22031,-0.25466 -0.292811,-0.46681 -0.16112,-0.47143 0.131699,-0.005 0.0413,-0.1591 -0.20083,-0.34327 -0.242149,-0.18417 -0.480271,-0.68639 -0.529169,-1.11606 -0.0846,-0.74362 -0.15631,-0.78509 -1.489911,-0.86161 -1.21712,-0.0698 -1.43419,-0.1676 -1.653651,-0.74482 -0.138938,-0.36545 -0.252619,-1.12592 -0.252619,-1.68994 0,-0.56402 -0.124711,-1.10257 -0.27714,-1.19678 -0.359019,-0.22188 -2.855569,0.35476 -3.625459,0.83739 -0.327432,0.20526 -0.59532,0.57994 -0.59532,0.83262 0,0.54745 -0.956371,1.21012 -1.373971,0.95203 -0.20742,-0.12819 -0.243059,0.13752 -0.120901,0.90144 0.180872,1.13114 1.22461,2.51678 2.305002,3.06008 0.86886,0.43692 0.88936,0.791141 0.10005,1.729179 -0.384562,0.457031 -0.626812,0.97804 -0.538311,1.15779 0.0885,0.17975 0.44608,0.803072 0.794631,1.385152 0.348559,0.582089 0.57467,1.154399 0.50246,1.27181 -0.24492,0.39828 0.17499,1.442299 0.643249,1.599308 0.25626,0.0859 0.644509,0.264832 0.862791,0.397561 1.263179,0.76812 2.727608,0.974571 3.166009,0.446331 z m 16.10492,-10.858761 c 0.89208,-1.01864 1.624031,-2.05688 1.626561,-2.30718 0.003,-0.25031 0.361789,-0.71918 0.798348,-1.04195 0.678461,-0.5016 0.794412,-0.76216 0.798322,-1.79385 0.004,-0.93791 0.15103,-1.34594 0.661459,-1.8301 0.36128,-0.3427 0.656881,-0.78504 0.656881,-0.98298 0,-0.19795 0.354478,-0.76363 0.78773,-1.25707 0.43325,-0.49345 0.713939,-0.97096 0.623758,-1.06115 -0.0902,-0.0902 -0.01339,-0.34544 0.170712,-0.56724 0.26725,-0.32202 0.268319,-0.48323 0.005,-0.80014 -0.18115,-0.21829 -0.438679,-0.39688 -0.57227,-0.39688 -0.503658,0 -1.80898,-1.17701 -1.80898,-1.63116 0,-0.64509 -0.942539,-1.18695 -2.428769,-1.39629 -0.68098,-0.0959 -1.539989,-0.41181 -1.9089,-0.702 -0.368909,-0.29018 -0.764241,-0.52699 -0.87851,-0.52624 -0.114281,7.41e-4 -0.179361,-0.70828 -0.144639,-1.57564 l 0.0631,-1.577 h -0.815512 c -0.578869,0 -0.853678,-0.14597 -0.94706,-0.50303 -0.186248,-0.71225 -1.798939,-0.87124 -2.58282,-0.25463 -0.346319,0.27241 -0.823529,0.40487 -1.150559,0.31935 -0.735621,-0.19237 -2.10674,0.42879 -2.262669,1.02507 -0.0783,0.29946 -0.373783,0.47157 -0.809551,0.47157 -0.868141,0 -0.872559,0.34419 -0.0131,1.02023 0.490598,0.38591 1.073459,0.52947 2.149649,0.52947 1.381221,0 1.546929,0.0711 2.567041,1.10141 l 1.090509,1.10141 -0.64529,0.52252 c -0.418089,0.33855 -0.83694,0.4616 -1.18963,0.3495 -1.1757,-0.3737 -1.603449,-0.28285 -1.58379,0.3364 0.0104,0.32742 0.0402,1.49943 0.0661,2.60446 0.0424,1.80186 0.104899,2.02422 0.60607,2.15528 0.47747,0.12486 0.53929,0.29179 0.42463,1.14661 -0.162931,1.21471 0.369358,2.09729 1.264888,2.09729 0.346961,0 0.724181,0.14883 0.83825,0.33073 0.114081,0.1819 0.221211,1.53183 0.23808,2.99983 0.033,2.86752 0.146082,3.28403 0.891882,3.28403 0.264639,0 0.633619,0.1837 0.819949,0.40822 0.50972,0.61417 0.824971,0.41976 2.59276,-1.59885 z m -13.005559,0.48473 c 0.0609,-1.57894 0.768898,-2.5723 1.91402,-2.68559 0.963239,-0.0953 1.649878,0.33438 1.433869,0.89729 -0.0884,0.23047 0.0208,0.37753 0.280311,0.37753 0.33315,0 0.42518,-0.28296 0.42518,-1.3073 0,-0.71902 0.11907,-1.38089 0.264588,-1.47082 0.145521,-0.0899 0.264581,-0.62361 0.264581,-1.18594 0,-0.70457 0.20564,-1.26681 0.661461,-1.80852 0.799788,-0.9505 0.82859,-1.26574 0.132289,-1.44783 -0.463661,-0.12125 -0.529169,-0.3609 -0.529169,-1.93586 0,-1.39804 -0.0705,-1.72692 -0.3175,-1.47998 -0.17462,0.17463 -0.71414,0.3175 -1.19892,0.3175 -0.609412,0 -0.924901,0.14289 -1.022292,0.46302 -0.0775,0.25466 -0.307739,0.82021 -0.51172,1.25677 -0.203978,0.43656 -0.45094,1.15094 -0.548788,1.5875 -0.390382,1.7417 -1.16328,1.81123 -1.16328,0.10465 0,-0.76104 -0.17711,-1.23185 -0.63604,-1.69079 -0.562642,-0.56264 -0.727432,-0.60154 -1.427972,-0.33712 -0.46685,0.17622 -0.938858,0.6323 -1.14989,1.11109 -0.355888,0.80745 -0.37029,0.81224 -2.47464,0.82317 -3.44492,0.0179 -3.573198,0.0437 -3.561678,0.71661 0.006,0.37417 0.32171,0.79187 0.848828,1.12448 0.461251,0.29104 0.91108,0.82682 0.999631,1.19062 0.141189,0.58012 0.28353,0.65158 1.15748,0.58112 1.326251,-0.10691 1.746369,0.2969 1.746369,1.6786 0,1.75175 0.16464,1.97361 1.464612,1.97361 1.212879,0 1.974969,0.49736 1.974969,1.2889 0,0.43508 0.469649,1.09236 0.780521,1.09235 0.08,0 0.166968,-0.55578 0.19318,-1.23506 z m -3.38292,-9.78901 c 0.663379,-1.50623 3.08955,-1.5106 3.713739,-0.007 0.266661,0.6425 0.378611,0.73363 0.468389,0.38127 0.0649,-0.25466 0.223722,-0.46302 0.35296,-0.46302 0.129241,0 0.36322,-0.47625 0.519962,-1.05833 0.156739,-0.58208 0.39946,-1.07322 0.539369,-1.09141 0.139909,-0.0182 0.61591,-0.048 1.05778,-0.0661 0.902629,-0.0372 1.30324,-0.50026 1.309219,-1.51342 0.0021,-0.37763 0.239141,-0.89935 0.526471,-1.15938 0.447849,-0.4053 0.633881,-0.42661 1.303451,-0.14926 0.548129,0.22704 0.92492,0.24276 1.263518,0.0527 0.466791,-0.262021 0.466762,-0.276891 -7.94e-4,-0.457001 -0.265811,-0.10239 -0.584999,-0.45368 -0.709311,-0.78065 -0.198678,-0.52257 -0.45072,-0.60718 -2.083509,-0.69944 -1.507839,-0.0852 -1.984441,-0.22421 -2.53184,-0.73847 -0.751951,-0.70642 -0.882179,-1.53646 -0.277471,-1.76851 0.218281,-0.0838 0.39688,-0.3211 0.39688,-0.52741 0,-0.452 -1.242161,-0.97293 -1.67585,-0.7028 -0.507129,0.31587 -1.602359,0.0784 -2.05124,-0.44475 -0.23091,-0.26909 -0.70639,-0.52985 -1.056648,-0.57946 -0.471623,-0.0668 -0.672251,-0.29613 -0.77334,-0.88396 -0.104492,-0.60753 -0.283681,-0.80119 -0.763781,-0.82543 -0.345001,-0.0174 -0.79035,0.16117 -0.989671,0.39688 -0.199319,0.2357 -0.59408,0.68999 -0.87725,1.00953 -0.339788,0.38345 -0.5422,1.05816 -0.59531,1.98438 -0.072,1.25498 -0.147989,1.41292 -0.719,1.4936 -0.3512,0.0496 -0.85721,0.34727 -1.124479,0.66146 l -0.48595,0.57124 -0.53695,-0.63423 c -0.464191,-0.5483 -0.62552,-0.59388 -1.19062,-0.33641 -0.554881,0.25283 -0.65368,0.47864 -0.65368,1.49414 0,1.30454 -0.107711,1.24195 2.248959,1.30676 l 0.79375,0.0218 0.0776,2.22815 c 0.0566,1.62484 0.187003,2.30817 0.481701,2.52365 0.222271,0.16253 0.36595,0.45982 0.319302,0.66064 -0.127162,0.54734 1.098338,1.08443 2.296419,1.00645 0.905161,-0.0589 1.111729,-0.19012 1.427239,-0.9065 z m -37.20545,22.72384 c -0.178223,-0.117341 -1.124495,-0.242909 -2.102825,-0.27903 -1.8825061,-0.0695 -2.467924,-0.334888 -2.467924,-1.11877 0,-0.26463 -0.1190619,-0.554741 -0.264583,-0.64467 -0.1455209,-0.0899 -0.2645828,-0.44713 -0.2645828,-0.79375 0,-0.346631 -0.1078852,-0.69691 -0.2397443,-0.778399 -0.1318598,-0.0815 -0.1873588,-0.35641 -0.1233329,-0.610931 0.07773,-0.30898 -0.1503299,-0.612529 -0.6862969,-0.913471 -0.44149,-0.247899 -0.80271,-0.581059 -0.80271,-0.740378 0,-0.487302 1.615159,-1.0038 2.6887019,-0.859811 1.297776,0.174072 1.838794,-0.2486 1.633311,-1.276009 -0.127307,-0.63654 -0.04708,-0.806572 0.471003,-0.99822 0.685298,-0.253511 1.556985,0.12636 1.556985,0.678508 0,0.179922 0.305789,0.527492 0.679531,0.772382 0.517417,0.339019 0.642457,0.592961 0.524126,1.064429 -0.172637,0.68784 0.08867,0.765519 2.162825,0.642951 0.930646,-0.055 1.232426,0.0579 1.804646,0.675378 0.37792,0.407781 1.06566,0.86378 1.52831,1.013331 2.23329,0.721881 0.15424,3.343941 -3.03687,3.830031 -0.923006,0.140589 -1.916318,0.321818 -2.20736,0.402709 -0.291042,0.0809 -0.674986,0.0511 -0.85321,-0.0663 z m 2.296457,-0.48994 c 0.661423,-0.0782 1.381181,-0.21118 1.599463,-0.295389 0.21828,-0.0842 0.45641,-0.164092 0.52917,-0.177511 0.0728,-0.01339 0.58535,-0.305369 1.1391,-0.64878 0.81178,-0.503431 0.99116,-0.759381 0.92604,-1.321361 -0.0571,-0.492688 -0.25712,-0.722019 -0.68238,-0.782367 -0.33088,-0.047 -0.85801,-0.432181 -1.17139,-0.856052 -0.53024,-0.717179 -0.68695,-0.768919 -2.257597,-0.74536 -1.811921,0.0272 -1.992054,-0.0409 -2.046052,-0.773891 -0.01929,-0.261829 -0.267278,-0.710829 -0.551086,-0.997799 -0.283808,-0.28697 -0.702861,-0.807389 -0.931229,-1.156491 -0.246071,-0.376169 -0.54247,-0.55608 -0.727604,-0.441658 -0.403644,0.249459 -0.404881,1.145238 -0.0018,1.279609 0.518979,0.17299 -1.349747,1.330219 -1.9110497,1.183431 -0.283641,-0.0742 -0.590245,-0.01431 -0.6813399,0.133128 -0.1074312,0.173831 -0.2325521,0.15971 -0.3560901,-0.0402 -0.192084,-0.310801 -1.5971162,-0.12196 -1.5938032,0.21422 9.21e-4,0.0934 0.370288,0.37956 0.820818,0.636 0.5198581,0.295899 0.7651433,0.606981 0.6713413,0.851418 -0.08129,0.211852 -0.03394,0.455552 0.105224,0.541552 0.1391648,0.086 0.2530279,0.44863 0.2530279,0.805821 0,0.357187 0.110371,0.856167 0.2452691,1.108858 0.134898,0.25269 0.3097548,0.66779 0.388571,0.922451 0.108326,0.35002 0.4520676,0.470681 1.4083766,0.494369 0.695791,0.0173 1.414785,0.0118 1.597766,-0.01201 0.18298,-0.02389 0.540168,0.0779 0.79375,0.226118 0.253582,0.14823 0.634269,0.207571 0.845971,0.131852 0.211702,-0.0757 0.926078,-0.201681 1.587501,-0.279942 z"
       id="path999-3"
       inkscape:connector-curvature="0" />
    <path
       style="fill:#ff0000;stroke-width:0.26458335"
       d="m 63.002697,16.087411 c -0.0839,0.0013 -0.1748,0.0058 -0.27337,0.01241 -0.56048,0.03753 -1.19493,0.214558 -1.41025,0.393258 -0.23153,0.192201 -0.7183,0.259447 -1.19114,0.164848 -0.46727,-0.09345 -0.8746,-0.03894 -0.97979,0.131257 -0.099,0.160182 -0.39631,0.291455 -0.66094,0.291455 -0.26464,0 -0.62829,0.177482 -0.80822,0.394293 -0.11569,0.139393 -0.20274,0.212894 -0.29352,0.219106 l -0.39016,0.28112 -0.58446,0.133842 c -0.0572,0.05217 -0.11983,0.09826 -0.18965,0.125058 -0.56063,0.215133 -0.48232,0.943192 0.13023,1.61127 l 1.73839,0.818039 c 0.26252,0.03225 0.57011,0.05656 0.94103,0.07752 1.63279,0.09226 1.88491,0.176612 2.08359,0.699183 0.12431,0.326969 0.44319,0.678439 0.709,0.78083 0.46755,0.18011 0.46783,0.1948 0.001,0.456819 -0.3386,0.190061 -0.71536,0.174331 -1.26349,-0.05271 -0.66957,-0.27735 -0.85595,-0.255956 -1.3038,0.149344 -0.28733,0.26003 -0.52406,0.781989 -0.52606,1.159621 -2.7e-4,0.06675 -0.008,0.124545 -0.0114,0.186552 l 0.0129,0.0186 0.21704,1.553392 -0.004,0.0098 c 0.038,0.241305 0.0532,0.643626 0.0532,1.271241 0,1.574959 0.0655,1.815065 0.52917,1.936316 0.43558,0.113908 0.58758,0.279596 0.44442,0.620633 l 0.2806,1.703255 c 0.0578,0.05906 0.11672,0.123828 0.1788,0.200504 0.30333,0.374661 0.84858,0.721498 1.21182,0.770496 0.65315,0.08811 0.66157,0.120772 0.73897,2.999301 0.043,1.600729 0.12847,3.058387 0.19017,3.239079 0.0616,0.1807 0.38961,0.305602 0.728628,0.277503 0.50049,-0.04142 1.58308,0.532895 1.92857,0.957564 l 0.64079,0.338479 c 0.1473,-0.214744 0.22929,-0.440529 0.1695,-0.596344 -0.073,-0.19032 0.36684,-0.857822 0.9772,-1.483633 1.16355,-1.192998 1.50429,-1.672923 2.14819,-3.024103 0.21523,-0.451659 0.69483,-1.020053 1.06557,-1.262972 0.554,-0.363011 0.67385,-0.650044 0.67385,-1.610754 0,-0.642901 0.11598,-1.240169 0.25735,-1.327569 0.14138,-0.08738 0.50438,-0.718084 0.80667,-1.401463 0.30229,-0.683392 0.78673,-1.495139 1.07642,-1.803508 0.2897,-0.30837 0.58878,-0.964499 0.66508,-1.45831 0.12938,-0.837649 0.068,-0.931277 -0.92139,-1.396296 -1.03562,-0.486741 -1.49403,-1.046046 -1.22008,-1.489316 0.24102,-0.389969 -1.35369,-1.302837 -2.81585,-1.611788 -2.26526,-0.47864 -3.20384,-1.161026 -2.96778,-2.158008 0.41065,-1.734349 0.19676,-2.312003 -0.85628,-2.312003 -0.34712,0 -0.74351,-0.230754 -0.90072,-0.524516 -0.19007,-0.35511 -0.43877,-0.478774 -1.026288,-0.468704 z m -0.42426,0.38137 c 0.60604,0.01095 1.161818,0.23653 1.266588,0.637172 0.0934,0.357058 0.36835,0.503328 0.94722,0.503328 h 0.81546 l -0.0631,1.577165 c -0.0347,0.86736 0.0304,1.576353 0.1447,1.575615 0.11427,-7.94e-4 0.50959,0.235884 0.8785,0.526066 0.36891,0.290189 1.22794,0.605864 1.90892,0.701765 1.48623,0.209341 2.42879,0.751207 2.42879,1.396296 0,0.454152 1.30502,1.631426 1.80868,1.631426 0.13359,0 0.39143,0.178586 0.57257,0.396875 0.26333,0.31691 0.26209,0.47793 -0.005,0.799952 -0.18411,0.2218 -0.26074,0.477208 -0.17054,0.567407 0.0902,0.09019 -0.19048,0.567467 -0.62373,1.060915 -0.43325,0.49344 -0.78807,1.059339 -0.78807,1.25729 0,0.19794 -0.29552,0.640186 -0.6568,0.982884 -0.51043,0.484161 -0.65746,0.892469 -0.66146,1.83038 -0.004,1.03169 -0.11994,1.29209 -0.7984,1.79369 -0.43656,0.322768 -0.7954,0.791485 -0.79841,1.041797 -0.003,0.250298 -0.73417,1.288711 -1.62625,2.307351 h -5.3e-4 c -1.76779,2.01861 -2.08289,2.213039 -2.59261,1.59887 -0.18633,-0.224521 -0.55546,-0.408245 -0.8201,-0.408245 -0.745798,0 -0.858938,-0.416517 -0.891938,-3.284037 -0.0169,-1.468001 -0.12363,-2.817916 -0.23771,-2.999817 -0.11407,-0.181901 -0.49175,-0.330729 -0.83871,-0.330729 -0.89553,0 -1.42745,-0.882835 -1.26452,-2.097545 0.11466,-0.854821 0.0527,-1.021323 -0.42478,-1.146186 -0.50117,-0.131058 -0.56376,-0.353562 -0.60617,-2.155422 -0.0259,-1.10503 -0.0557,-2.277073 -0.0661,-2.604493 -0.0197,-0.619249 0.40818,-0.710112 1.58388,-0.336412 0.35269,0.112099 0.7715,-0.0108 1.18959,-0.349335 l 0.64544,-0.522964 -1.09037,-1.101225 c -1.02011,-1.030309 -1.18607,-1.101225 -2.56729,-1.101225 -1.07619,0 -1.65914,-0.143772 -2.14974,-0.529683 -0.85946,-0.676039 -0.8547,-1.020093 0.0134,-1.020093 0.43578,0 0.73096,-0.172347 0.80926,-0.471805 0.15593,-0.596281 1.52729,-1.217115 2.26291,-1.024744 0.32703,0.08552 0.804,-0.04695 1.15032,-0.31936 0.34294,-0.269767 0.84483,-0.391446 1.3162,-0.382924 z"
       id="path999"
       inkscape:connector-curvature="0" />
    <path
       style="fill:#ff0000;stroke-width:0.26458338"
       d="m 50.109438,13.950117 c -1.178745,0.06967 -2.265545,1.480107 -2.441196,3.240629 -0.114549,1.14813 -0.220999,1.346269 -0.79375,1.477429 -0.3638,0.08331 -0.779291,0.41527 -0.922941,0.73794 -0.326988,0.73405 -0.471808,0.735848 -0.800468,0.0083 -0.37624,-0.8329 -0.750816,-0.855015 -1.652095,-0.09663 -0.682019,0.5739 -0.790959,0.838809 -0.757061,1.844849 0.02175,0.64614 0.113523,1.248853 0.204124,1.339453 0.09057,0.09056 0.773239,0.178954 1.517219,0.195854 l 1.352888,0.03049 v 2.079976 c 0,1.604671 0.09068,2.114922 0.396875,2.232421 0.226232,0.08681 0.396875,0.480947 0.396875,0.917258 0,0.01508 -7.94e-4,0.0268 -0.0011,0.04134 l 0.301273,0.593246 1.455724,0.540536 c 0.08199,-5.29e-4 0.142328,-0.0011 0.22841,-0.0016 2.10435,-0.01093 2.118894,-0.01577 2.474785,-0.823206 0.211029,-0.47879 0.682951,-0.934823 1.1498,-1.111043 0.70054,-0.26442 0.86518,-0.225711 1.427821,0.336931 0.458931,0.458938 0.636135,0.929812 0.636135,1.690851 0,1.706581 0.772859,1.637313 1.163238,-0.104386 0.09785,-0.43656 0.344824,-1.15094 0.548804,-1.5875 0.203981,-0.43656 0.434097,-1.002109 0.511596,-1.256771 0.09739,-0.32013 0.41275,-0.463021 1.02216,-0.463021 0.48478,0 1.024273,-0.143179 1.198893,-0.317809 0.07095,-0.07094 0.12723,-0.09211 0.171566,-0.05633 l 0.569992,-1.475363 c -0.0019,-0.06765 -0.0069,-0.291412 -0.0083,-0.333313 -0.01966,-0.61925 0.408181,-0.710113 1.58388,-0.336414 0.352693,0.1121 0.771504,-0.0113 1.189594,-0.349849 L 62.8791,22.421936 61.788726,21.320712 c -1.020022,-1.030332 -1.185461,-1.101247 -2.566681,-1.101247 -1.07619,0 -1.659149,-0.143774 -2.149739,-0.529684 -0.768184,-0.604244 -0.841412,-0.941439 -0.229442,-1.006656 l 0.542603,-0.989087 c -0.120119,-0.02289 -0.256257,-0.164249 -0.481108,-0.450102 -0.56374,-0.71669 -1.656758,-1.007271 -2.533695,-0.673861 -0.458923,0.17449 -0.772798,0.08564 -1.335836,-0.378271 -0.404932,-0.33363 -0.935371,-0.679312 -1.17874,-0.767912 -0.24338,-0.08863 -0.481468,-0.436243 -0.529167,-0.772563 -0.06799,-0.47972 -0.279699,-0.630115 -0.980818,-0.697115 -0.07916,-0.0076 -0.158097,-0.0088 -0.236678,-0.0041 z m 0.233577,0.321944 c 0.4801,0.02424 0.659289,0.217743 0.763778,0.825273 0.101089,0.58783 0.301977,0.817384 0.773597,0.884184 0.350258,0.04961 0.825354,0.310202 1.056264,0.579293 0.448881,0.523149 1.544426,0.760803 2.051555,0.444934 0.433689,-0.270131 1.675866,0.250799 1.675866,0.702799 0,0.20631 -0.178594,0.4433 -0.396875,0.5271 -0.604708,0.23205 -0.474446,1.062464 0.277503,1.768884 0.547401,0.514261 1.023789,0.653256 2.531628,0.738456 1.632792,0.09226 1.884916,0.176613 2.083594,0.699182 0.124309,0.32697 0.443709,0.678441 0.709517,0.780831 0.467561,0.180109 0.467307,0.194799 5.29e-4,0.45682 -0.3386,0.19006 -0.715359,0.17433 -1.263488,-0.05271 -0.669571,-0.27735 -0.85543,-0.255956 -1.303282,0.149345 -0.28733,0.260029 -0.524582,0.781989 -0.526582,1.159619 -0.006,1.01316 -0.406334,1.475886 -1.308965,1.513086 -0.44187,0.0181 -0.917906,0.04795 -1.057815,0.06615 -0.139911,0.0182 -0.382762,0.509326 -0.539504,1.091406 -0.156739,0.582079 -0.390623,1.058334 -0.519864,1.058334 -0.129241,0 -0.288049,0.208359 -0.352948,0.463021 -0.08978,0.352358 -0.202047,0.261128 -0.468707,-0.381373 -0.624131,-1.503458 -3.049818,-1.498571 -3.713467,0.0072 -0.315394,0.71597 -0.52234,0.847002 -1.427305,0.905888 -1.198079,0.07798 -2.42366,-0.458798 -2.296499,-1.006139 0.04665,-0.200821 -0.09709,-0.498411 -0.31936,-0.660942 -0.294701,-0.21548 -0.425027,-0.89852 -0.481626,-2.52336 l -0.07752,-2.228288 -0.79375,-0.0217 c -2.356668,-0.06481 -2.248958,-0.0024 -2.248958,-1.306897 0,-1.0155 0.09883,-1.241136 0.653708,-1.493966 0.5651,-0.25747 0.726435,-0.211886 1.190625,0.336414 l 0.536916,0.63407 0.48576,-0.571025 c 0.267271,-0.314189 0.773279,-0.611858 1.124479,-0.661458 0.57101,-0.08068 0.647337,-0.23847 0.719336,-1.493449 0.05311,-0.926221 0.255524,-1.601442 0.595312,-1.984892 0.28317,-0.31954 0.67763,-0.773541 0.876948,-1.009241 0.199322,-0.23571 0.644605,-0.414275 0.989606,-0.396875 z"
       id="path999-3-6"
       inkscape:connector-curvature="0" />
    <path
       style="fill:#ff0000;stroke-width:0.26458338"
       d="m 59.505116,24.597764 -0.907436,0.274918 c -0.202155,0.363093 -0.563446,0.54331 -1.110528,0.565857 -0.44187,0.0181 -0.917906,0.04795 -1.057817,0.06615 -0.139909,0.01819 -0.382762,0.509326 -0.539501,1.091406 -0.15674,0.58208 -0.390626,1.058334 -0.519864,1.058334 -0.129241,0 -0.288052,0.20836 -0.352952,0.463021 -0.08978,0.35236 -0.202044,0.261127 -0.468704,-0.381373 -0.624131,-1.503458 -3.04982,-1.498571 -3.713469,0.0072 -0.315394,0.715969 -0.522341,0.847001 -1.427303,0.905888 -0.468937,0.03052 -0.939186,-0.03491 -1.33377,-0.156579 l -1.543058,0.03307 c -0.08131,0.136216 -0.219927,0.187069 -0.448035,0.187069 -0.792138,0 -1.569929,0.481694 -1.569929,0.972034 0,0.23326 0.476253,0.941033 1.058334,1.572513 0.673552,0.730723 1.02335,1.287745 1.036113,1.616956 l 0.01085,0.0041 0.05736,0.785999 c 0.973153,-0.281768 2.091301,-0.472282 2.322856,-0.329179 0.152429,0.09421 0.276985,0.632806 0.276985,1.196826 0,0.56402 0.113757,1.324886 0.252698,1.690336 0.219459,0.57722 0.436525,0.674858 1.653646,0.744658 1.3336,0.07652 1.405231,0.117826 1.489831,0.861446 0.0489,0.42967 0.287018,0.932041 0.529167,1.116211 0.137708,0.104744 0.224025,0.198605 0.250629,0.261999 l 1.032497,0.213424 c 0.01035,-0.113427 0.03126,-0.201821 0.06666,-0.24598 0.12119,-0.15118 0.229613,-0.834807 0.240813,-1.519287 0.02577,-1.57315 0.481179,-2.327506 1.405599,-2.327506 0.572738,0 0.742847,0.152619 0.883666,0.79375 0.341519,1.554939 1.719792,0.543611 1.719792,-1.261939 0,-0.59842 0.119062,-1.161703 0.264583,-1.251603 0.145521,-0.08994 0.264583,-0.685247 0.264583,-1.322917 0,-1.064429 0.239792,-1.515447 0.659908,-1.314648 l 0.585496,-0.648023 c -0.03455,-0.242296 -0.03635,-0.509362 0.0021,-0.795817 0.114663,-0.85482 0.05321,-1.02184 -0.424262,-1.1467 -0.501171,-0.13106 -0.563763,-0.353564 -0.606166,-2.155424 -0.01617,-0.689987 -0.0278,-1.105959 -0.04134,-1.626257 z m -0.636654,0.812353 c 0.14994,-0.0111 0.196371,0.419036 0.196371,1.554944 0,1.57496 0.06551,1.814549 0.529167,1.935799 0.696301,0.18209 0.667499,0.497474 -0.132292,1.447974 -0.455818,0.54171 -0.661458,1.104105 -0.661458,1.808675 0,0.56233 -0.119062,1.095557 -0.264583,1.185457 -0.145521,0.08993 -0.264584,0.752208 -0.264584,1.471228 0,1.02434 -0.09215,1.306897 -0.425296,1.306897 -0.259511,0 -0.368488,-0.146768 -0.280088,-0.377238 0.216011,-0.56291 -0.470778,-0.992402 -1.43402,-0.897103 -1.14512,0.11329 -1.853195,1.106168 -1.914094,2.685108 -0.02622,0.67928 -0.113271,1.235067 -0.19327,1.235067 -0.31087,10e-6 -0.780315,-0.656844 -0.780315,-1.091923 0,-0.791541 -0.762193,-1.289327 -1.975072,-1.289327 -1.299972,0 -1.464511,-0.221773 -1.464511,-1.973523 0,-1.3817 -0.420412,-1.785361 -1.746663,-1.678451 -0.87395,0.07046 -1.015846,-0.0012 -1.157036,-0.58136 -0.08855,-0.3638 -0.538689,-0.899585 -0.99994,-1.190625 -0.527118,-0.33261 -0.842526,-0.750309 -0.848526,-1.124479 -0.01151,-0.67291 0.11662,-0.698335 3.56154,-0.716235 2.10435,-0.01093 2.118894,-0.01576 2.474785,-0.823206 0.211029,-0.47879 0.682951,-0.934823 1.1498,-1.111043 0.70054,-0.26442 0.86518,-0.22571 1.427819,0.33693 0.45893,0.45894 0.636138,0.929813 0.636138,1.690853 0,1.70658 0.772855,1.636797 1.163235,-0.104903 0.09785,-0.43656 0.344826,-1.15094 0.548804,-1.5875 0.20398,-0.43656 0.434096,-1.002111 0.511598,-1.256771 0.09739,-0.32013 0.41275,-0.463021 1.02216,-0.463021 0.48478,0 1.024273,-0.142663 1.198893,-0.317293 0.04631,-0.0463 0.08684,-0.07237 0.121438,-0.07493 z"
       id="path999-3-7"
       inkscape:connector-curvature="0" />
    <path
       style="fill:#ff0000;stroke-width:0.26458338"
       d="m 59.529411,30.223351 c -0.0331,0.04054 -0.05934,0.07576 -0.0956,0.118856 -0.455819,0.54171 -0.661459,1.103588 -0.661459,1.808158 0,0.56233 -0.119062,1.096074 -0.264583,1.185974 -0.145518,0.08993 -0.264583,0.751692 -0.264583,1.470713 0,1.024339 -0.09215,1.307412 -0.425297,1.307412 -0.259508,0 -0.369004,-0.146767 -0.280604,-0.377238 0.216012,-0.562909 -0.470262,-0.99292 -1.433504,-0.89762 -1.145119,0.113292 -1.853195,1.106686 -1.914094,2.685624 -0.02622,0.679281 -0.113271,1.235067 -0.19327,1.235067 -0.02119,3e-6 -0.04316,-0.0035 -0.06563,-0.0093 -0.03603,0.464587 -0.07028,0.932947 -0.102317,1.411282 0.388281,0.670846 0.345194,1.384475 -0.129193,2.188496 -0.294468,0.499091 -0.683419,0.907438 -0.864029,0.907438 -0.18062,0 -0.486238,0.478301 -0.679029,1.062469 -0.192799,0.584171 -0.514432,1.198145 -0.715201,1.364774 -0.239591,0.198829 -0.307821,0.565179 -0.197921,1.065567 0.09884,0.450022 0.03614,0.920393 -0.152961,1.148252 l -0.251148,1.080553 c 0.688568,0.325805 1.407144,1.064604 1.204061,1.393198 -0.22609,0.365829 1.138039,1.351854 1.87017,1.351854 0.34418,0 0.6258,0.122941 0.6258,0.27337 0,0.150421 0.412046,0.516734 0.915707,0.813903 0.382244,0.225529 0.6178,0.392825 0.681096,0.607714 l 0.886251,0.06925 c 0.392054,-0.258075 0.69768,-0.78989 0.814419,-1.418 0.102971,-0.553982 0.623787,-1.887109 1.157036,-2.962611 0.727231,-1.466718 1.167831,-2.039726 1.763199,-2.29185 1.16245,-0.492247 1.984375,-1.743668 1.984375,-3.021521 0,-0.875426 0.182288,-1.26624 0.992188,-2.127001 0.5457,-0.579966 1.132297,-1.054478 1.303798,-1.054716 0.482168,-7.94e-4 1.189699,-0.821952 1.041278,-1.208712 -0.0031,-0.008 -2.65e-4,-0.02138 -0.0016,-0.03101 l -0.67386,-0.533818 c -0.348247,0.204362 -0.55196,0.09955 -0.800984,-0.200504 -0.18633,-0.22452 -0.554958,-0.408244 -0.819589,-0.408244 -0.745799,0 -0.858935,-0.416517 -0.891934,-3.284037 -0.01688,-1.467998 -0.12415,-2.817916 -0.238231,-2.999816 -0.11407,-0.1819 -0.49122,-0.33073 -0.838189,-0.33073 -0.60679,0 -1.045967,-0.405731 -1.215948,-1.044897 z m 0.249597,0.691431 c 0.183962,-3.7e-4 0.416497,0.165539 0.690396,0.503845 0.303331,0.37466 0.84909,0.721496 1.212331,0.770497 0.653159,0.08811 0.661056,0.120769 0.738455,2.999298 0.04302,1.600732 0.128471,3.05839 0.190169,3.23908 0.06165,0.180699 0.389607,0.305601 0.728639,0.277502 0.596119,-0.04933 2.022769,0.775754 2.039667,1.179772 0.0046,0.109141 -0.233555,0.198438 -0.529166,0.198438 -0.295609,0 -0.611667,0.208362 -0.701765,0.463021 -0.09014,0.254658 -0.503153,0.783658 -0.917774,1.175639 -0.614169,0.580638 -0.753443,0.936069 -0.753443,1.918229 0,0.663051 -0.100039,1.205611 -0.222208,1.205611 -0.12216,0 -0.357722,0.297659 -0.523483,0.661458 -0.165759,0.363799 -0.482433,0.661458 -0.703831,0.661458 -0.221401,0 -0.402561,0.09105 -0.402561,0.202055 0,0.111011 -0.260641,0.31937 -0.579292,0.463021 -0.63641,0.286911 -1.487853,1.582856 -1.518253,2.311487 -0.01064,0.254659 -0.121931,0.463021 -0.247531,0.463021 -0.125601,0 -0.433425,0.684604 -0.684197,1.521354 -0.250759,0.836742 -0.475911,1.601539 -0.499711,1.699638 -0.07232,0.29772 -1.597273,-0.46532 -2.134753,-1.068152 -0.277209,-0.310928 -0.759111,-0.56534 -1.071253,-0.56534 -0.68883,0 -1.20251,-0.470541 -1.20251,-1.101741 0,-0.256821 -0.22424,-0.587206 -0.49816,-0.733806 -0.621559,-0.332669 -0.913252,-1.046758 -0.58756,-1.439188 0.393088,-0.473631 0.397544,-0.531257 0.08061,-1.123445 -0.246428,-0.460491 -0.211254,-0.643398 0.195855,-1.011825 0.27328,-0.2473 0.565989,-0.724127 0.650089,-1.059367 0.08414,-0.33523 0.452012,-0.805408 0.81752,-1.044898 0.365501,-0.23949 0.66456,-0.571894 0.66456,-0.738973 0,-0.16709 0.193942,-0.518385 0.430982,-0.780315 0.36045,-0.398312 0.384405,-0.659603 0.146243,-1.597834 -0.156599,-0.61699 -0.185785,-1.245635 -0.0646,-1.396813 0.121189,-0.15118 0.229613,-0.83481 0.240813,-1.519287 0.02577,-1.573152 0.481179,-2.327508 1.405599,-2.327508 0.572741,0 0.742847,0.152619 0.883666,0.79375 0.341521,1.55494 1.719791,0.543613 1.719791,-1.261938 0,-0.598419 0.119066,-1.161704 0.264584,-1.251604 0.145521,-0.08994 0.264583,-0.685247 0.264583,-1.322916 0,-0.899637 0.170889,-1.362602 0.477491,-1.363224 z"
       id="path999-3-5"
       inkscape:connector-curvature="0" />
    <path
       style="fill:#ff0000;stroke-width:0.26458338"
       d="m 47.146979,32.670132 -0.566891,0.135393 c 0.04819,0.269102 -0.08716,0.415996 -0.414962,0.415996 -0.244488,0 -0.929092,0.514581 -1.521354,1.143598 -0.592249,0.629021 -1.298472,1.225759 -1.569413,1.326018 -0.41347,0.153001 -0.466149,0.362506 -0.327629,1.303795 l 0.165365,1.121381 -0.03669,0.444415 c 0.562182,-0.009 0.847096,0.185158 1.321366,0.881084 0.346181,0.507981 0.841024,0.923459 1.099675,0.923459 0.63105,0 0.383106,0.982218 -0.302824,1.199925 -0.531971,0.168839 -0.721428,1.542757 -0.252698,1.832446 0.389879,0.240959 1.075386,1.753762 1.075386,2.373501 0,0.30907 0.169333,0.804111 0.376721,1.10019 0.12912,0.184314 0.20201,0.36725 0.220142,0.534334 l 0.690398,0.226343 c 0.09718,-0.106532 0.226764,-0.0317 0.525031,0.238228 0.0013,0.0011 0.0028,0.0024 0.0041,0.0036 l 0.66249,0.356568 c 0.132292,0.0419 0.261985,0.07235 0.37052,0.07235 0.307372,0 0.632537,0.119065 0.722437,0.264583 0.08994,0.145521 0.483809,0.266235 0.8754,0.269233 0.09864,5.29e-4 0.206373,0.0205 0.318326,0.05478 l 0.900205,-0.525034 c -0.0068,-0.158702 0.0288,-0.308785 0.12764,-0.427882 0.393089,-0.473627 0.397544,-0.531254 0.08062,-1.123444 -0.246441,-0.460489 -0.211257,-0.643395 0.195853,-1.011825 0.273269,-0.247301 0.565988,-0.724128 0.650089,-1.059368 0.08414,-0.33523 0.452011,-0.805407 0.81752,-1.044895 0.365511,-0.23949 0.664559,-0.571894 0.664559,-0.738973 0,-0.16709 0.193942,-0.518385 0.430983,-0.780315 0.36046,-0.398311 0.384394,-0.659603 0.146243,-1.597834 -0.09538,-0.375783 -0.142886,-0.754481 -0.138491,-1.028362 l -0.492477,-0.780314 c -0.309528,-0.0514 -0.740008,-0.670983 -0.740008,-1.087789 0,-0.791541 -0.762193,-1.28881 -1.975072,-1.28881 -1.299969,0 -1.464511,-0.221773 -1.464511,-1.973524 0,-1.381699 -0.420413,-1.785361 -1.746663,-1.678451 -0.476025,0.03838 -0.731459,0.03068 -0.891418,-0.07441 z m 1.604036,0.628386 c 0.104127,0.0045 0.182499,0.01982 0.227378,0.04754 0.152429,0.09421 0.2775,0.632806 0.2775,1.196827 0,0.56402 0.113242,1.324369 0.252182,1.689819 0.219459,0.577218 0.436526,0.675373 1.653646,0.745173 1.333601,0.07652 1.405747,0.117827 1.490348,0.861446 0.0489,0.42967 0.287017,0.932042 0.529166,1.116211 0.242131,0.184171 0.332206,0.338132 0.200504,0.343133 -0.131688,0.0046 -0.05908,0.216627 0.161232,0.471289 0.683631,0.79021 0.736481,1.628568 0.16433,2.59829 -0.29447,0.499089 -0.682903,0.907439 -0.863512,0.907439 -0.180621,0 -0.486238,0.478298 -0.67903,1.062466 -0.192799,0.584171 -0.514948,1.198144 -0.715716,1.364774 -0.239591,0.198829 -0.307306,0.565182 -0.197406,1.065569 0.09884,0.450022 0.03614,0.920391 -0.152961,1.14825 -0.438401,0.52824 -1.902518,0.322154 -3.1657,-0.445966 -0.218278,-0.132728 -0.606734,-0.31201 -0.862996,-0.39791 -0.46826,-0.157009 -0.888291,-1.201105 -0.643372,-1.599385 0.07221,-0.117414 -0.153733,-0.689668 -0.502293,-1.271756 -0.348551,-0.582081 -0.706284,-1.20518 -0.794784,-1.38493 -0.0885,-0.17975 0.153908,-0.701037 0.538469,-1.158068 0.789311,-0.938038 0.768607,-1.292175 -0.100253,-1.729095 -1.080389,-0.5433 -2.123898,-1.928621 -2.30477,-3.05976 -0.122158,-0.763921 -0.0865,-1.029944 0.120923,-0.901753 0.4176,0.258088 1.374076,-0.404432 1.374076,-0.951881 0,-0.25268 0.267883,-0.627248 0.595313,-0.832509 0.673656,-0.422299 2.668831,-0.916887 3.397726,-0.885216 z"
       id="path999-3-3"
       inkscape:connector-curvature="0" />
    <path
       style="fill:#ff0000;stroke-width:0.26458338"
       d="m 43.700677,38.041383 -0.788582,0.07493 -1.863969,0.599445 c -1.419579,0.45675 -1.988926,0.533395 -2.386933,0.320395 -0.442952,-0.237062 -0.562867,-0.174914 -0.784966,0.409276 -0.14415,0.379132 -0.262001,0.905171 -0.262001,1.168921 0,0.263761 -0.178594,0.628094 -0.396875,0.809255 -0.218278,0.181149 -0.396875,0.671988 -0.396875,1.090887 0,0.54102 -0.306572,1.058953 -1.058333,1.788523 -0.674619,0.654687 -1.058333,1.265515 -1.058333,1.684133 0,0.319583 -0.189823,0.828511 -0.438732,1.202513 l -0.02532,1.034045 c 1.455925,0.02212 1.991968,0.193963 2.282547,0.613399 0.199649,0.288179 0.641263,0.524 0.981853,0.524 0.34059,0 1.24904,0.244358 2.01848,0.543118 1.10355,0.428482 1.730713,0.934148 2.970363,2.39572 0.237461,0.279969 0.430654,0.505378 0.606163,0.706416 l 0.749308,-0.01913 c -0.0041,-0.116412 0.06067,-0.252995 0.199472,-0.411343 0.210539,-0.240223 0.464508,-0.704556 0.564306,-1.031978 0.12596,-0.413361 0.386868,-0.595312 0.853178,-0.595312 0.369372,0 1.006938,-0.282345 1.416968,-0.627354 0.70847,-0.596141 0.726152,-0.664101 0.359151,-1.371491 -0.212371,-0.409401 -0.319844,-0.917335 -0.238744,-1.128615 0.0091,-0.02363 0.01802,-0.04187 0.02687,-0.06201 l -0.127641,-0.781349 c -0.392686,-0.307888 -0.689935,-1.154629 -0.474905,-1.5043 0.07221,-0.117414 -0.154253,-0.689668 -0.502812,-1.271756 -0.348551,-0.582081 -0.705768,-1.205696 -0.794269,-1.385446 -0.0885,-0.17975 0.153393,-0.700521 0.537954,-1.157552 0.78931,-0.938038 0.769122,-1.292175 -0.09974,-1.729094 -0.721225,-0.362686 -1.424816,-1.101114 -1.867586,-1.888258 z m -0.70435,0.517798 c 0.486569,0.02048 0.760249,0.236193 1.200444,0.882118 0.346181,0.507979 0.841026,0.923975 1.099675,0.923975 0.631049,0 0.383622,0.9817 -0.302308,1.199409 -0.531969,0.168839 -0.721426,1.543273 -0.252698,1.832962 0.389882,0.240959 1.074869,1.753243 1.074869,2.372982 0,0.309073 0.16985,0.80463 0.377238,1.100709 0.237882,0.339572 0.291679,0.676447 0.14573,0.912606 -0.150461,0.243441 -0.0822,0.539261 0.195336,0.845942 0.66746,0.737529 0.01733,1.737767 -1.196826,1.841749 -0.781349,0.06692 -0.979006,0.216524 -1.219047,0.920874 -0.15762,0.462499 -0.361053,0.913622 -0.451652,1.002522 -0.09056,0.08889 -0.745407,-0.429427 -1.455208,-1.151866 -1.2343,-1.256292 -3.421737,-2.411222 -4.566647,-2.411222 -0.26311,0 -0.693661,-0.238117 -0.957048,-0.529167 -0.26339,-0.291039 -0.750994,-0.529166 -1.083654,-0.529166 -0.77932,0 -1.009052,-0.383114 -0.521933,-0.870234 0.223821,-0.223361 0.320429,-0.625821 0.232029,-0.963763 -0.10654,-0.4074 0.01669,-0.698455 0.413927,-0.976685 0.663509,-0.464741 1.356506,-1.709121 1.356506,-2.435511 0,-0.280451 0.178596,-0.658064 0.396875,-0.839224 0.218281,-0.18116 0.396875,-0.657416 0.396875,-1.058333 0,-0.86609 0.519776,-1.391169 1.051615,-1.062469 0.22959,0.141891 0.644507,0.08936 1.082106,-0.136943 0.39034,-0.201853 0.783548,-0.293389 0.873848,-0.203089 0.09031,0.09031 0.373342,-0.0127 0.628901,-0.228925 0.25555,-0.216231 0.821761,-0.412565 1.258321,-0.436666 0.0793,-0.0044 0.153218,-0.0055 0.222726,-0.0026 z"
       id="path999-3-56"
       inkscape:connector-curvature="0" />
  </g>
</svg>
